<?xml version="1.0" encoding="utf-8"?>
<!-- created with bpmn-js / http://bpmn.io -->
<!DOCTYPE svg PUBLIC "-//W3C//DTD SVG 1.1//EN" "http://www.w3.org/Graphics/SVG/1.1/DTD/svg11.dtd">
<svg xmlns="http://www.w3.org/2000/svg" xmlns:xlink="http://www.w3.org/1999/xlink" width="1270" height="452" viewBox="184 14 1270 452" version="1.1"><defs><marker id="association-end-_FFFFFF-hsl_225_10_15_-0r6vulh0bilqyfifmeg26drtl" viewBox="0 0 20 20" refX="12" refY="10" markerWidth="10" markerHeight="10" orient="auto"><path d="M 1 5 L 11 10 L 1 15" style="fill: none; stroke-width: 1.5px; stroke-linecap: round; stroke-dasharray: 10000, 1; stroke: rgb(34, 36, 42);"/></marker><marker id="sequenceflow-end-_FFFFFF-hsl_225_10_15_-0r6vulh0bilqyfifmeg26drtl" viewBox="0 0 20 20" refX="11" refY="10" markerWidth="10" markerHeight="10" orient="auto"><path d="M 1 5 L 11 10 L 1 15 Z" style="fill: rgb(34, 36, 42); stroke-width: 1px; stroke-linecap: round; stroke-dasharray: 10000, 1; stroke: rgb(34, 36, 42);"/></marker><marker id="conditional-default-flow-marker-_FFFFFF-hsl_225_10_15_-0r6vulh0bilqyfifmeg26drtl" viewBox="0 0 20 20" refX="0" refY="10" markerWidth="10" markerHeight="10" orient="auto"><path d="M 6 4 L 10 16" style="fill: rgb(34, 36, 42); stroke-width: 1px; stroke-linecap: round; stroke-dasharray: 10000, 1; stroke: rgb(34, 36, 42);"/></marker></defs><g class="djs-group"><g class="djs-element djs-shape" data-element-id="Event_1ilu88r" transform="matrix(1 0 0 1 1412 240)" style="display: block;"><g class="djs-visual"><circle cx="18" cy="18" r="18" style="stroke: rgb(34, 36, 42); stroke-width: 4px; fill: rgb(255, 255, 255); fill-opacity: 0.95;"/></g><rect class="djs-hit djs-hit-all" x="0" y="0" width="36" height="36" style="fill: none; stroke-opacity: 0; stroke: white; stroke-width: 15px;"/><rect x="-6" y="-6" rx="3" width="48" height="48" class="djs-outline" style="fill: none;"/></g></g><g class="djs-group"><g class="djs-element djs-shape" data-element-id="StartEvent_1" transform="matrix(1 0 0 1 242 240)" style="display: block;"><g class="djs-visual"><circle cx="18" cy="18" r="18" style="stroke: rgb(34, 36, 42); stroke-width: 2px; fill: rgb(255, 255, 255); fill-opacity: 0.95;"/><text class="djs-label" style="font-family: Arial, sans-serif; font-size: 12px;"><tspan x="13" y="22.5">M</tspan></text></g><rect class="djs-hit djs-hit-all" x="0" y="0" width="36" height="36" style="fill: none; stroke-opacity: 0; stroke: white; stroke-width: 15px;"/><rect x="-6" y="-6" rx="3" width="48" height="48" class="djs-outline" style="fill: none;"/></g></g><g class="djs-group"><g class="djs-element djs-shape" data-element-id="StartEvent_1_label" transform="matrix(1 0 0 1 224 276)" style="display: block;"><g class="djs-visual"><text lineHeight="1.2" class="djs-label" style="font-family: Arial, sans-serif; font-size: 11px; font-weight: normal; fill: rgb(34, 36, 42);"><tspan x="0" y="9.899999999999999">Manual Trigger</tspan></text></g><rect class="djs-hit djs-hit-all" x="0" y="0" width="75" height="14" style="fill: none; stroke-opacity: 0; stroke: white; stroke-width: 15px;"/><rect x="-6" y="-6" rx="3" width="87" height="26" class="djs-outline" style="fill: none;"/></g></g><g class="djs-group"><g class="djs-element djs-shape" data-element-id="Activity_1t3j2vx" transform="matrix(1 0 0 1 310 218)" style="display: block;"><g class="djs-visual"><rect x="0" y="0" width="100" height="80" rx="10" ry="10" style="stroke: rgb(34, 36, 42); stroke-width: 2px; fill: rgb(255, 255, 255); fill-opacity: 0.95;"/><text lineHeight="1.2" class="djs-label" style="font-family: Arial, sans-serif; font-size: 12px; font-weight: normal; fill: rgb(34, 36, 42);"><tspan x="8.4873046875" y="36.4">Read JSON file</tspan><tspan x="21.4921875" y="50.8">from SFTP</tspan></text><path d="m 50,73 c 3.526979,0 6.386161,-2.829858 6.386161,-6.320661 0,-3.490806 -2.859182,-6.320661 -6.386161,-6.320661 -3.526978,0 -6.38616,2.829855 -6.38616,6.320661 0,1.745402 0.714797,3.325567 1.870463,4.469381 0.577834,0.571908 1.265885,1.034728 2.029916,1.35457 l -0.718163,-3.909793 m 0.718163,3.909793 -3.885211,0.802902" data-marker="loop" style="fill: rgb(255, 255, 255); stroke-width: 1px; stroke: rgb(34, 36, 42); stroke-linecap: round; stroke-miterlimit: 0.5;"/></g><rect class="djs-hit djs-hit-all" x="0" y="0" width="100" height="80" style="fill: none; stroke-opacity: 0; stroke: white; stroke-width: 15px;"/><rect x="-6" y="-6" rx="3" width="112" height="92" class="djs-outline" style="fill: none;"/></g></g><g class="djs-group"><g class="djs-element djs-shape" data-element-id="Gateway_14nb58k" transform="matrix(1 0 0 1 445 233)" style="display: block;"><g class="djs-visual"><polygon points="25,0 50,25 25,50 0,25" style="stroke: rgb(34, 36, 42); stroke-width: 2px; fill: rgb(255, 255, 255); fill-opacity: 0.95;"/><path d="m 16,15 7.42857142857143,9.714285714285715 -7.42857142857143,9.714285714285715 3.428571428571429,0 5.714285714285715,-7.464228571428572 5.714285714285715,7.464228571428572 3.428571428571429,0 -7.42857142857143,-9.714285714285715 7.42857142857143,-9.714285714285715 -3.428571428571429,0 -5.714285714285715,7.464228571428572 -5.714285714285715,-7.464228571428572 -3.428571428571429,0 z" style="fill: rgb(34, 36, 42); stroke-width: 1px; stroke: rgb(34, 36, 42);"/></g><rect class="djs-hit djs-hit-all" x="0" y="0" width="50" height="50" style="fill: none; stroke-opacity: 0; stroke: white; stroke-width: 15px;"/><rect x="-6" y="-6" rx="3" width="62" height="62" class="djs-outline" style="fill: none;"/></g></g><g class="djs-group"><g class="djs-element djs-shape" data-element-id="Gateway_14nb58k_label" transform="matrix(1 0 0 1 441 196)" style="display: block;"><g class="djs-visual"><text lineHeight="1.2" class="djs-label" style="font-family: Arial, sans-serif; font-size: 11px; font-weight: normal; fill: rgb(34, 36, 42);"><tspan x="7.34375" y="9.899999999999999">File read </tspan><tspan x="0" y="23.099999999999998">successful?</tspan></text></g><rect class="djs-hit djs-hit-all" x="0" y="0" width="58" height="27" style="fill: none; stroke-opacity: 0; stroke: white; stroke-width: 15px;"/><rect x="-6" y="-6" rx="3" width="70" height="39" class="djs-outline" style="fill: none;"/></g></g><g class="djs-group"><g class="djs-element djs-shape" data-element-id="DataObjectReference_0ksp4rn" transform="matrix(1 0 0 1 342 342)" style="display: block;"><g class="djs-visual"><path d="m 0,0 28.23529411764706,0 7.058823529411765,8.196721311475411 0,40.98360655737705 -35.294117647058826,0 0,-49.18032786885246 28.23529411764706,0 0,8.196721311475411 7.058823529411765,0" style="fill: rgb(255, 255, 255); stroke-width: 2px; stroke: rgb(34, 36, 42); fill-opacity: 0.95;"/></g><rect class="djs-hit djs-hit-all" x="0" y="0" width="36" height="50" style="fill: none; stroke-opacity: 0; stroke: white; stroke-width: 15px;"/><rect x="-6" y="-6" rx="3" width="48" height="62" class="djs-outline" style="fill: none;"/></g></g><g class="djs-group"><g class="djs-element djs-shape" data-element-id="DataObjectReference_0ksp4rn_label" transform="matrix(1 0 0 1 337 399)" style="display: block;"><g class="djs-visual"><text lineHeight="1.2" class="djs-label" style="font-family: Arial, sans-serif; font-size: 11px; font-weight: normal; fill: rgb(34, 36, 42);"><tspan x="0" y="9.899999999999999">JSON file</tspan></text></g><rect class="djs-hit djs-hit-all" x="0" y="0" width="47" height="14" style="fill: none; stroke-opacity: 0; stroke: white; stroke-width: 15px;"/><rect x="-6" y="-6" rx="3" width="59" height="26" class="djs-outline" style="fill: none;"/></g></g><g class="djs-group"><g class="djs-element djs-shape" data-element-id="Event_0c1ctz8" transform="matrix(1 0 0 1 452 349)" style="display: block;"><g class="djs-visual"><circle cx="18" cy="18" r="18" style="stroke: rgb(34, 36, 42); stroke-width: 1px; fill: rgb(255, 255, 255); fill-opacity: 0.95;"/><circle cx="18" cy="18" r="15" style="stroke: rgb(34, 36, 42); stroke-width: 1px; fill: none;"/><path d="M 18,7.2 l 9,16.2 l -18,0 Z" style="fill: rgb(34, 36, 42); stroke-width: 1px; stroke: rgb(34, 36, 42);"/></g><rect class="djs-hit djs-hit-all" x="0" y="0" width="36" height="36" style="fill: none; stroke-opacity: 0; stroke: white; stroke-width: 15px;"/><rect x="-6" y="-6" rx="3" width="48" height="48" class="djs-outline" style="fill: none;"/></g></g><g class="djs-group"><g class="djs-element djs-shape" data-element-id="Event_0c1ctz8_label" transform="matrix(1 0 0 1 430 392)" style="display: block;"><g class="djs-visual"><text lineHeight="1.2" class="djs-label" style="font-family: Arial, sans-serif; font-size: 11px; font-weight: normal; fill: rgb(34, 36, 42);"><tspan x="0" y="9.899999999999999">Throw an error if </tspan><tspan x="8.354248046875" y="23.099999999999998">read was not </tspan><tspan x="14.3623046875" y="36.3">successful</tspan></text></g><rect class="djs-hit djs-hit-all" x="0" y="0" width="81" height="40" style="fill: none; stroke-opacity: 0; stroke: white; stroke-width: 15px;"/><rect x="-6" y="-6" rx="3" width="93" height="52" class="djs-outline" style="fill: none;"/></g></g><g class="djs-group"><g class="djs-element djs-shape" data-element-id="Activity_1qerhv6" transform="matrix(1 0 0 1 740 110)" style="display: block;"><g class="djs-visual"><rect x="0" y="0" width="590" height="310" rx="10" ry="10" style="stroke: rgb(34, 36, 42); stroke-width: 2px; fill: rgb(255, 255, 255); fill-opacity: 0.95;"/><text lineHeight="1.2" class="djs-label" style="font-family: Arial, sans-serif; font-size: 12px; font-weight: normal; fill: rgb(34, 36, 42);"><tspan x="246.4755859375" y="15.799999999999999">For each data row</tspan></text><path d="m292,291 m 0,3 l 10,0 m -10,3 l 10,0 m -10,3 l 10,0" data-marker="sequential" style="fill: rgb(255, 255, 255); stroke-width: 2px; stroke: rgb(34, 36, 42);"/></g><rect class="djs-hit djs-hit-no-move" x="0" y="0" width="590" height="310" style="fill: none; stroke-opacity: 0; stroke: white; stroke-width: 15px;"/><rect class="djs-hit djs-hit-click-stroke" x="0" y="0" width="590" height="310" style="fill: none; stroke-opacity: 0; stroke: white; stroke-width: 15px;"/><rect class="djs-hit djs-hit-all" x="0" y="0" width="590" height="30" style="fill: none; stroke-opacity: 0; stroke: white; stroke-width: 15px;"/><rect x="-6" y="-6" rx="3" width="602" height="322" class="djs-outline" style="fill: none;"/></g><g class="djs-children"><g class="djs-group"><g class="djs-element djs-shape" data-element-id="Event_1bt2saf" transform="matrix(1 0 0 1 780 240)" style="display: block;"><g class="djs-visual"><circle cx="18" cy="18" r="18" style="stroke: rgb(34, 36, 42); stroke-width: 2px; fill: rgb(255, 255, 255); fill-opacity: 0.95;"/></g><rect class="djs-hit djs-hit-all" x="0" y="0" width="36" height="36" style="fill: none; stroke-opacity: 0; stroke: white; stroke-width: 15px;"/><rect x="-6" y="-6" rx="3" width="48" height="48" class="djs-outline" style="fill: none;"/></g></g><g class="djs-group"><g class="djs-element djs-shape" data-element-id="Activity_0iji20v" transform="matrix(1 0 0 1 1020 218)" style="display: block;"><g class="djs-visual"><rect x="0" y="0" width="100" height="80" rx="10" ry="10" style="stroke: rgb(34, 36, 42); stroke-width: 2px; fill: rgb(255, 255, 255); fill-opacity: 0.95;"/><text lineHeight="1.2" class="djs-label" style="font-family: Arial, sans-serif; font-size: 12px; font-weight: normal; fill: rgb(34, 36, 42);"><tspan x="28.1572265625" y="29.200000000000003">Execute </tspan><tspan x="27.771484375" y="43.6">INSERT </tspan><tspan x="22.318359375" y="58">Statement</tspan></text><path d="m 50,73 c 3.526979,0 6.386161,-2.829858 6.386161,-6.320661 0,-3.490806 -2.859182,-6.320661 -6.386161,-6.320661 -3.526978,0 -6.38616,2.829855 -6.38616,6.320661 0,1.745402 0.714797,3.325567 1.870463,4.469381 0.577834,0.571908 1.265885,1.034728 2.029916,1.35457 l -0.718163,-3.909793 m 0.718163,3.909793 -3.885211,0.802902" data-marker="loop" style="fill: rgb(255, 255, 255); stroke-width: 1px; stroke: rgb(34, 36, 42); stroke-linecap: round; stroke-miterlimit: 0.5;"/></g><rect class="djs-hit djs-hit-all" x="0" y="0" width="100" height="80" style="fill: none; stroke-opacity: 0; stroke: white; stroke-width: 15px;"/><rect x="-6" y="-6" rx="3" width="112" height="92" class="djs-outline" style="fill: none;"/></g></g><g class="djs-group"><g class="djs-element djs-shape" data-element-id="Activity_17dg0px" transform="matrix(1 0 0 1 870 150)" style="display: block;"><g class="djs-visual"><rect x="0" y="0" width="100" height="80" rx="10" ry="10" style="stroke: rgb(34, 36, 42); stroke-width: 2px; fill: rgb(255, 255, 255); fill-opacity: 0.95;"/><text lineHeight="1.2" class="djs-label" style="font-family: Arial, sans-serif; font-size: 12px; font-weight: normal; fill: rgb(34, 36, 42);"><tspan x="15.3125" y="43.599999999999994">Create query</tspan></text><path d="m 15,20 c 9.966553,-6.27276 -8.000926,-7.91932 2.968968,-14.938 l -8.802728,0 c -10.969894,7.01868 6.997585,8.66524 -2.968967,14.938 z m -7,-12 l 5,0 m -4.5,3 l 4.5,0 m -3,3 l 5,0m -4,3 l 5,0" style="fill: none; stroke-width: 1px; stroke: rgb(34, 36, 42);"/></g><rect class="djs-hit djs-hit-all" x="0" y="0" width="100" height="80" style="fill: none; stroke-opacity: 0; stroke: white; stroke-width: 15px;"/><rect x="-6" y="-6" rx="3" width="112" height="92" class="djs-outline" style="fill: none;"/></g></g><g class="djs-group"><g class="djs-element djs-shape" data-element-id="Activity_06yxlvm" transform="matrix(1 0 0 1 870 280)" style="display: block;"><g class="djs-visual"><rect x="0" y="0" width="100" height="80" rx="10" ry="10" style="stroke: rgb(34, 36, 42); stroke-width: 2px; fill: rgb(255, 255, 255); fill-opacity: 0.95;"/><text lineHeight="1.2" class="djs-label" style="font-family: Arial, sans-serif; font-size: 12px; font-weight: normal; fill: rgb(34, 36, 42);"><tspan x="15.3125" y="36.4">Create query </tspan><tspan x="19.6484375" y="50.8">parameters</tspan></text><path d="m 15,20 c 9.966553,-6.27276 -8.000926,-7.91932 2.968968,-14.938 l -8.802728,0 c -10.969894,7.01868 6.997585,8.66524 -2.968967,14.938 z m -7,-12 l 5,0 m -4.5,3 l 4.5,0 m -3,3 l 5,0m -4,3 l 5,0" style="fill: none; stroke-width: 1px; stroke: rgb(34, 36, 42);"/></g><rect class="djs-hit djs-hit-all" x="0" y="0" width="100" height="80" style="fill: none; stroke-opacity: 0; stroke: white; stroke-width: 15px;"/><rect x="-6" y="-6" rx="3" width="112" height="92" class="djs-outline" style="fill: none;"/></g></g><g class="djs-group"><g class="djs-element djs-shape" data-element-id="Event_0otsupi" transform="matrix(1 0 0 1 1252 240)" style="display: block;"><g class="djs-visual"><circle cx="18" cy="18" r="18" style="stroke: rgb(34, 36, 42); stroke-width: 4px; fill: rgb(255, 255, 255); fill-opacity: 0.95;"/></g><rect class="djs-hit djs-hit-all" x="0" y="0" width="36" height="36" style="fill: none; stroke-opacity: 0; stroke: white; stroke-width: 15px;"/><rect x="-6" y="-6" rx="3" width="48" height="48" class="djs-outline" style="fill: none;"/></g></g><g class="djs-group"><g class="djs-element djs-shape" data-element-id="Gateway_09qut53" transform="matrix(1 0 0 1 1155 233)" style="display: block;"><g class="djs-visual"><polygon points="25,0 50,25 25,50 0,25" style="stroke: rgb(34, 36, 42); stroke-width: 2px; fill: rgb(255, 255, 255); fill-opacity: 0.95;"/><path d="m 16,15 7.42857142857143,9.714285714285715 -7.42857142857143,9.714285714285715 3.428571428571429,0 5.714285714285715,-7.464228571428572 5.714285714285715,7.464228571428572 3.428571428571429,0 -7.42857142857143,-9.714285714285715 7.42857142857143,-9.714285714285715 -3.428571428571429,0 -5.714285714285715,7.464228571428572 -5.714285714285715,-7.464228571428572 -3.428571428571429,0 z" style="fill: rgb(34, 36, 42); stroke-width: 1px; stroke: rgb(34, 36, 42);"/></g><rect class="djs-hit djs-hit-all" x="0" y="0" width="50" height="50" style="fill: none; stroke-opacity: 0; stroke: white; stroke-width: 15px;"/><rect x="-6" y="-6" rx="3" width="62" height="62" class="djs-outline" style="fill: none;"/></g></g><g class="djs-group"><g class="djs-element djs-shape" data-element-id="Gateway_09qut53_label" transform="matrix(1 0 0 1 1145 196)" style="display: block;"><g class="djs-visual"><text lineHeight="1.2" class="djs-label" style="font-family: Arial, sans-serif; font-size: 11px; font-weight: normal; fill: rgb(34, 36, 42);"><tspan x="0" y="9.899999999999999">Was the insert </tspan><tspan x="6.1767578125" y="23.099999999999998">successful?</tspan></text></g><rect class="djs-hit djs-hit-all" x="0" y="0" width="70" height="27" style="fill: none; stroke-opacity: 0; stroke: white; stroke-width: 15px;"/><rect x="-6" y="-6" rx="3" width="82" height="39" class="djs-outline" style="fill: none;"/></g></g><g class="djs-group"><g class="djs-element djs-shape" data-element-id="Event_143fjei" transform="matrix(1 0 0 1 1162 332)" style="display: block;"><g class="djs-visual"><circle cx="18" cy="18" r="18" style="stroke: rgb(34, 36, 42); stroke-width: 1px; fill: rgb(255, 255, 255); fill-opacity: 0.95;"/><circle cx="18" cy="18" r="15" style="stroke: rgb(34, 36, 42); stroke-width: 1px; fill: none;"/><path d="M 18,7.2 l 9,16.2 l -18,0 Z" style="fill: rgb(34, 36, 42); stroke-width: 1px; stroke: rgb(34, 36, 42);"/></g><rect class="djs-hit djs-hit-all" x="0" y="0" width="36" height="36" style="fill: none; stroke-opacity: 0; stroke: white; stroke-width: 15px;"/><rect x="-6" y="-6" rx="3" width="48" height="48" class="djs-outline" style="fill: none;"/></g></g><g class="djs-group"><g class="djs-element djs-shape" data-element-id="Event_143fjei_label" transform="matrix(1 0 0 1 1140 375)" style="display: block;"><g class="djs-visual"><text lineHeight="1.2" class="djs-label" style="font-family: Arial, sans-serif; font-size: 11px; font-weight: normal; fill: rgb(34, 36, 42);"><tspan x="0" y="9.899999999999999">Throw an error if </tspan><tspan x="5.9130859375" y="23.099999999999998">insert was not </tspan><tspan x="14.3623046875" y="36.3">successful</tspan></text></g><rect class="djs-hit djs-hit-all" x="0" y="0" width="81" height="40" style="fill: none; stroke-opacity: 0; stroke: white; stroke-width: 15px;"/><rect x="-6" y="-6" rx="3" width="93" height="52" class="djs-outline" style="fill: none;"/></g></g><g class="djs-group"><g class="djs-element djs-connection" data-element-id="Flow_1ibjymp" style="display: block;"><g class="djs-visual"><path d="m  816,258L838,258 L838,190 L870,190 " style="fill: none; stroke-width: 2px; stroke: rgb(34, 36, 42); stroke-linejoin: round; marker-end: url('#sequenceflow-end-_FFFFFF-hsl_225_10_15_-0r6vulh0bilqyfifmeg26drtl');"/></g><polyline points="816,258 838,258 838,190 870,190 " class="djs-hit djs-hit-stroke" style="fill: none; stroke-opacity: 0; stroke: white; stroke-width: 15px;"/><rect x="810" y="184" rx="3" width="66" height="80" class="djs-outline" style="fill: none;"/></g></g><g class="djs-group"><g class="djs-element djs-connection" data-element-id="Flow_19uxd9r" style="display: block;"><g class="djs-visual"><path d="m  970,320L1070,320 L1070,298 " style="fill: none; stroke-width: 2px; stroke: rgb(34, 36, 42); stroke-linejoin: round; marker-end: url('#sequenceflow-end-_FFFFFF-hsl_225_10_15_-0r6vulh0bilqyfifmeg26drtl');"/></g><polyline points="970,320 1070,320 1070,298 " class="djs-hit djs-hit-stroke" style="fill: none; stroke-opacity: 0; stroke: white; stroke-width: 15px;"/><rect x="964" y="292" rx="3" width="112" height="34" class="djs-outline" style="fill: none;"/></g></g><g class="djs-group"><g class="djs-element djs-connection" data-element-id="Flow_1dm36u1" style="display: block;"><g class="djs-visual"><path d="m  1120,258L1155,258 " style="fill: none; stroke-width: 2px; stroke: rgb(34, 36, 42); stroke-linejoin: round; marker-end: url('#sequenceflow-end-_FFFFFF-hsl_225_10_15_-0r6vulh0bilqyfifmeg26drtl');"/></g><polyline points="1120,258 1155,258 " class="djs-hit djs-hit-stroke" style="fill: none; stroke-opacity: 0; stroke: white; stroke-width: 15px;"/><rect x="1114" y="252" rx="3" width="47" height="12" class="djs-outline" style="fill: none;"/></g></g><g class="djs-group"><g class="djs-element djs-connection" data-element-id="Flow_00wo7mm" style="display: block;"><g class="djs-visual"><path d="m  1205,258L1252,258 " style="fill: none; stroke-width: 2px; stroke: rgb(34, 36, 42); stroke-linejoin: round; marker-end: url('#sequenceflow-end-_FFFFFF-hsl_225_10_15_-0r6vulh0bilqyfifmeg26drtl');"/></g><polyline points="1205,258 1252,258 " class="djs-hit djs-hit-stroke" style="fill: none; stroke-opacity: 0; stroke: white; stroke-width: 15px;"/><rect x="1199" y="252" rx="3" width="59" height="12" class="djs-outline" style="fill: none;"/></g></g><g class="djs-group"><g class="djs-element djs-shape" data-element-id="Flow_00wo7mm_label" transform="matrix(1 0 0 1 1220 240)" style="display: block;"><g class="djs-visual"><text lineHeight="1.2" class="djs-label" style="font-family: Arial, sans-serif; font-size: 11px; font-weight: normal; fill: rgb(34, 36, 42);"><tspan x="0" y="9.899999999999999">yes</tspan></text></g><rect class="djs-hit djs-hit-all" x="0" y="0" width="17" height="14" style="fill: none; stroke-opacity: 0; stroke: white; stroke-width: 15px;"/><rect x="-6" y="-6" rx="3" width="29" height="26" class="djs-outline" style="fill: none;"/></g></g><g class="djs-group"><g class="djs-element djs-connection" data-element-id="Flow_0jm9k12" style="display: block;"><g class="djs-visual"><path d="m  1180,283L1180,332 " style="fill: none; stroke-width: 2px; stroke: rgb(34, 36, 42); stroke-linejoin: round; marker-end: url('#sequenceflow-end-_FFFFFF-hsl_225_10_15_-0r6vulh0bilqyfifmeg26drtl'); marker-start: url('#conditional-default-flow-marker-_FFFFFF-hsl_225_10_15_-0r6vulh0bilqyfifmeg26drtl');"/></g><polyline points="1180,283 1180,332 " class="djs-hit djs-hit-stroke" style="fill: none; stroke-opacity: 0; stroke: white; stroke-width: 15px;"/><rect x="1174" y="277" rx="3" width="12" height="61" class="djs-outline" style="fill: none;"/></g></g><g class="djs-group"><g class="djs-element djs-shape" data-element-id="Flow_0jm9k12_label" transform="matrix(1 0 0 1 1189 305)" style="display: block;"><g class="djs-visual"><text lineHeight="1.2" class="djs-label" style="font-family: Arial, sans-serif; font-size: 11px; font-weight: normal; fill: rgb(34, 36, 42);"><tspan x="0" y="9.899999999999999">no</tspan></text></g><rect class="djs-hit djs-hit-all" x="0" y="0" width="13" height="14" style="fill: none; stroke-opacity: 0; stroke: white; stroke-width: 15px;"/><rect x="-6" y="-6" rx="3" width="25" height="26" class="djs-outline" style="fill: none;"/></g></g><g class="djs-group"><g class="djs-element djs-connection" data-element-id="Flow_0lioopv" style="display: block;"><g class="djs-visual"><path d="m  816,258L838,258 L838,320 L870,320 " style="fill: none; stroke-width: 2px; stroke: rgb(34, 36, 42); stroke-linejoin: round; marker-end: url('#sequenceflow-end-_FFFFFF-hsl_225_10_15_-0r6vulh0bilqyfifmeg26drtl');"/></g><polyline points="816,258 838,258 838,320 870,320 " class="djs-hit djs-hit-stroke" style="fill: none; stroke-opacity: 0; stroke: white; stroke-width: 15px;"/><rect x="810" y="252" rx="3" width="66" height="74" class="djs-outline" style="fill: none;"/></g></g><g class="djs-group"><g class="djs-element djs-connection" data-element-id="Flow_0jrs4l2" style="display: block;"><g class="djs-visual"><path d="m  970,190L1070,190 L1070,218 " style="fill: none; stroke-width: 2px; stroke: rgb(34, 36, 42); stroke-linejoin: round; marker-end: url('#sequenceflow-end-_FFFFFF-hsl_225_10_15_-0r6vulh0bilqyfifmeg26drtl');"/></g><polyline points="970,190 1070,190 1070,218 " class="djs-hit djs-hit-stroke" style="fill: none; stroke-opacity: 0; stroke: white; stroke-width: 15px;"/><rect x="964" y="184" rx="3" width="112" height="40" class="djs-outline" style="fill: none;"/></g></g></g></g><g class="djs-group"><g class="djs-element djs-shape" data-element-id="Activity_1ld00yp" transform="matrix(1 0 0 1 550 218)" style="display: block;"><g class="djs-visual"><rect x="0" y="0" width="100" height="80" rx="10" ry="10" style="stroke: rgb(34, 36, 42); stroke-width: 2px; fill: rgb(255, 255, 255); fill-opacity: 0.95;"/><text lineHeight="1.2" class="djs-label" style="font-family: Arial, sans-serif; font-size: 12px; font-weight: normal; fill: rgb(34, 36, 42);"><tspan x="16.65625" y="43.599999999999994">Parse JSON</tspan></text></g><rect class="djs-hit djs-hit-all" x="0" y="0" width="100" height="80" style="fill: none; stroke-opacity: 0; stroke: white; stroke-width: 15px;"/><rect x="-6" y="-6" rx="3" width="112" height="92" class="djs-outline" style="fill: none;"/></g></g><g class="djs-group"><g class="djs-element djs-shape djs-frame" data-element-id="Group_168041r" transform="matrix(1 0 0 1 710 20)" style="display: block;"><g class="djs-visual"><rect x="0" y="0" width="660" height="440" rx="10" ry="10" style="stroke: rgb(34, 36, 42); stroke-width: 1px; fill: none; stroke-dasharray: 8, 3, 1, 3; pointer-events: none;"/></g><rect class="djs-hit djs-hit-stroke" x="0" y="0" width="660" height="440" style="fill: none; stroke-opacity: 0; stroke: white; stroke-width: 15px;"/><rect x="-6" y="-6" rx="3" width="672" height="452" class="djs-outline" style="fill: none;"/></g></g><g class="djs-group"><g class="djs-element djs-shape" data-element-id="Group_168041r_label" transform="matrix(1 0 0 1 1002 27)" style="display: block;"><g class="djs-visual"><text lineHeight="1.2" class="djs-label" style="font-family: Arial, sans-serif; font-size: 11px; font-weight: normal; fill: rgb(34, 36, 42);"><tspan x="5.90625" y="9.899999999999999">Insert data into </tspan><tspan x="0" y="23.099999999999998">MySQL database </tspan><tspan x="30.8671875" y="36.3">table</tspan></text></g><rect class="djs-hit djs-hit-all" x="0" y="0" width="85" height="40" style="fill: none; stroke-opacity: 0; stroke: white; stroke-width: 15px;"/><rect x="-6" y="-6" rx="3" width="97" height="52" class="djs-outline" style="fill: none;"/></g></g><g class="djs-group"><g class="djs-element djs-shape djs-frame" data-element-id="Group_04vv671" transform="matrix(1 0 0 1 190 20)" style="display: block;"><g class="djs-visual"><rect x="0" y="0" width="490" height="440" rx="10" ry="10" style="stroke: rgb(34, 36, 42); stroke-width: 1px; fill: none; stroke-dasharray: 8, 3, 1, 3; pointer-events: none;"/></g><rect class="djs-hit djs-hit-stroke" x="0" y="0" width="490" height="440" style="fill: none; stroke-opacity: 0; stroke: white; stroke-width: 15px;"/><rect x="-6" y="-6" rx="3" width="502" height="452" class="djs-outline" style="fill: none;"/></g></g><g class="djs-group"><g class="djs-element djs-shape" data-element-id="Group_04vv671_label" transform="matrix(1 0 0 1 394 27)" style="display: block;"><g class="djs-visual"><text lineHeight="1.2" class="djs-label" style="font-family: Arial, sans-serif; font-size: 11px; font-weight: normal; fill: rgb(34, 36, 42);"><tspan x="0" y="9.899999999999999">Read JSON from </tspan><tspan x="10.44091796875" y="23.099999999999998">SFTP server</tspan></text></g><rect class="djs-hit djs-hit-all" x="0" y="0" width="84" height="27" style="fill: none; stroke-opacity: 0; stroke: white; stroke-width: 15px;"/><rect x="-6" y="-6" rx="3" width="96" height="39" class="djs-outline" style="fill: none;"/></g></g><g class="djs-group"><g class="djs-element djs-connection" data-element-id="DataInputAssociation_17r5rlk" style="display: block;"><g class="djs-visual"><polyline points="361,342 360,298 " style="fill: none; stroke: rgb(34, 36, 42); stroke-width: 2px; stroke-dasharray: 0.5, 5; stroke-linecap: round; stroke-linejoin: round; marker-end: url('#association-end-_FFFFFF-hsl_225_10_15_-0r6vulh0bilqyfifmeg26drtl');"/></g><polyline points="361,342 360,298 " class="djs-hit djs-hit-stroke" style="fill: none; stroke-opacity: 0; stroke: white; stroke-width: 15px;"/><rect x="354" y="292" rx="3" width="13" height="56" class="djs-outline" style="fill: none;"/></g></g><g class="djs-group"><g class="djs-element djs-connection" data-element-id="Flow_0pdno6e" style="display: block;"><g class="djs-visual"><path d="m  278,258L310,258 " style="fill: none; stroke-width: 2px; stroke: rgb(34, 36, 42); stroke-linejoin: round; marker-end: url('#sequenceflow-end-_FFFFFF-hsl_225_10_15_-0r6vulh0bilqyfifmeg26drtl');"/></g><polyline points="278,258 310,258 " class="djs-hit djs-hit-stroke" style="fill: none; stroke-opacity: 0; stroke: white; stroke-width: 15px;"/><rect x="272" y="252" rx="3" width="44" height="12" class="djs-outline" style="fill: none;"/></g></g><g class="djs-group"><g class="djs-element djs-connection" data-element-id="Flow_0hrntp0" style="display: block;"><g class="djs-visual"><path d="m  410,258L445,258 " style="fill: none; stroke-width: 2px; stroke: rgb(34, 36, 42); stroke-linejoin: round; marker-end: url('#sequenceflow-end-_FFFFFF-hsl_225_10_15_-0r6vulh0bilqyfifmeg26drtl');"/></g><polyline points="410,258 445,258 " class="djs-hit djs-hit-stroke" style="fill: none; stroke-opacity: 0; stroke: white; stroke-width: 15px;"/><rect x="404" y="252" rx="3" width="47" height="12" class="djs-outline" style="fill: none;"/></g></g><g class="djs-group"><g class="djs-element djs-connection" data-element-id="Flow_1rh9p75" style="display: block;"><g class="djs-visual"><path d="m  470,283L470,349 " style="fill: none; stroke-width: 2px; stroke: rgb(34, 36, 42); stroke-linejoin: round; marker-end: url('#sequenceflow-end-_FFFFFF-hsl_225_10_15_-0r6vulh0bilqyfifmeg26drtl'); marker-start: url('#conditional-default-flow-marker-_FFFFFF-hsl_225_10_15_-0r6vulh0bilqyfifmeg26drtl');"/></g><polyline points="470,283 470,349 " class="djs-hit djs-hit-stroke" style="fill: none; stroke-opacity: 0; stroke: white; stroke-width: 15px;"/><rect x="464" y="277" rx="3" width="12" height="78" class="djs-outline" style="fill: none;"/></g></g><g class="djs-group"><g class="djs-element djs-shape" data-element-id="Flow_1rh9p75_label" transform="matrix(1 0 0 1 479 312)" style="display: block;"><g class="djs-visual"><text lineHeight="1.2" class="djs-label" style="font-family: Arial, sans-serif; font-size: 11px; font-weight: normal; fill: rgb(34, 36, 42);"><tspan x="0" y="9.899999999999999">no</tspan></text></g><rect class="djs-hit djs-hit-all" x="0" y="0" width="13" height="14" style="fill: none; stroke-opacity: 0; stroke: white; stroke-width: 15px;"/><rect x="-6" y="-6" rx="3" width="25" height="26" class="djs-outline" style="fill: none;"/></g></g><g class="djs-group"><g class="djs-element djs-connection" data-element-id="Flow_0yj7ww3" style="display: block;"><g class="djs-visual"><path d="m  495,258L550,258 " style="fill: none; stroke-width: 2px; stroke: rgb(34, 36, 42); stroke-linejoin: round; marker-end: url('#sequenceflow-end-_FFFFFF-hsl_225_10_15_-0r6vulh0bilqyfifmeg26drtl');"/></g><polyline points="495,258 550,258 " class="djs-hit djs-hit-stroke" style="fill: none; stroke-opacity: 0; stroke: white; stroke-width: 15px;"/><rect x="489" y="252" rx="3" width="67" height="12" class="djs-outline" style="fill: none;"/></g></g><g class="djs-group"><g class="djs-element djs-shape" data-element-id="Flow_0yj7ww3_label" transform="matrix(1 0 0 1 514 240)" style="display: block;"><g class="djs-visual"><text lineHeight="1.2" class="djs-label" style="font-family: Arial, sans-serif; font-size: 11px; font-weight: normal; fill: rgb(34, 36, 42);"><tspan x="0" y="9.899999999999999">yes</tspan></text></g><rect class="djs-hit djs-hit-all" x="0" y="0" width="17" height="14" style="fill: none; stroke-opacity: 0; stroke: white; stroke-width: 15px;"/><rect x="-6" y="-6" rx="3" width="29" height="26" class="djs-outline" style="fill: none;"/></g></g><g class="djs-group"><g class="djs-element djs-connection" data-element-id="Flow_0ofbzrz" style="display: block;"><g class="djs-visual"><path d="m  650,258L740,258 " style="fill: none; stroke-width: 2px; stroke: rgb(34, 36, 42); stroke-linejoin: round; marker-end: url('#sequenceflow-end-_FFFFFF-hsl_225_10_15_-0r6vulh0bilqyfifmeg26drtl');"/></g><polyline points="650,258 740,258 " class="djs-hit djs-hit-stroke" style="fill: none; stroke-opacity: 0; stroke: white; stroke-width: 15px;"/><rect x="644" y="252" rx="3" width="102" height="12" class="djs-outline" style="fill: none;"/></g></g><g class="djs-group"><g class="djs-element djs-connection" data-element-id="Flow_0rkhxxk" style="display: block;"><g class="djs-visual"><path d="m  1330,258L1412,258 " style="fill: none; stroke-width: 2px; stroke: rgb(34, 36, 42); stroke-linejoin: round; marker-end: url('#sequenceflow-end-_FFFFFF-hsl_225_10_15_-0r6vulh0bilqyfifmeg26drtl');"/></g><polyline points="1330,258 1412,258 " class="djs-hit djs-hit-stroke" style="fill: none; stroke-opacity: 0; stroke: white; stroke-width: 15px;"/><rect x="1324" y="252" rx="3" width="94" height="12" class="djs-outline" style="fill: none;"/></g></g></svg>
