<?xml version="1.0" encoding="utf-8"?>
<!-- created with bpmn-js / http://bpmn.io -->
<!DOCTYPE svg PUBLIC "-//W3C//DTD SVG 1.1//EN" "http://www.w3.org/Graphics/SVG/1.1/DTD/svg11.dtd">
<svg xmlns="http://www.w3.org/2000/svg" xmlns:xlink="http://www.w3.org/1999/xlink" width="2040.0001220703125" height="632" viewBox="1306.0001220703125 -56.000003814697266 2040.0001220703125 632" version="1.1"><defs><marker id="association-end-_FFFFFF-hsl_225_10_15_-1yhm4sbejjz9f84cp2ekbzjbd" viewBox="0 0 20 20" refX="12" refY="10" markerWidth="10" markerHeight="10" orient="auto"><path d="M 1 5 L 11 10 L 1 15" style="fill: none; stroke-width: 1.5px; stroke-linecap: round; stroke-dasharray: 10000, 1; stroke: rgb(34, 36, 42);"/></marker><marker id="sequenceflow-end-_FFFFFF-hsl_225_10_15_-1yhm4sbejjz9f84cp2ekbzjbd" viewBox="0 0 20 20" refX="11" refY="10" markerWidth="10" markerHeight="10" orient="auto"><path d="M 1 5 L 11 10 L 1 15 Z" style="fill: rgb(34, 36, 42); stroke-width: 1px; stroke-linecap: round; stroke-dasharray: 10000, 1; stroke: rgb(34, 36, 42);"/></marker><marker id="conditional-default-flow-marker-_FFFFFF-hsl_225_10_15_-1yhm4sbejjz9f84cp2ekbzjbd" viewBox="0 0 20 20" refX="0" refY="10" markerWidth="10" markerHeight="10" orient="auto"><path d="M 6 4 L 10 16" style="fill: rgb(34, 36, 42); stroke-width: 1px; stroke-linecap: round; stroke-dasharray: 10000, 1; stroke: rgb(34, 36, 42);"/></marker></defs><g class="djs-group"><g class="djs-element djs-shape" data-element-id="StartEvent_1" style="display: block;" transform="matrix(1 0 0 1 1312 260)"><g class="djs-visual"><circle cx="18" cy="18" r="18" style="stroke: rgb(34, 36, 42); stroke-width: 2px; fill: rgb(255, 255, 255); fill-opacity: 0.95;"/><text class="djs-label" style="font-family: Arial, sans-serif; font-size: 12px;"><tspan x="13" y="21.600000858306885">M</tspan></text></g><rect class="djs-hit djs-hit-all" x="0" y="0" width="36" height="36" style="fill: none; stroke-opacity: 0; stroke: white; stroke-width: 15px;"/><rect x="-6" y="-6" rx="3" width="48" height="48" class="djs-outline" style="fill: none;"/></g></g><g class="djs-group"><g class="djs-element djs-shape" data-element-id="StartEvent_1_label" style="display: block;" transform="matrix(1 0 0 1 1312 296)"><g class="djs-visual"><text lineHeight="1.2" class="djs-label" style="font-family: Arial, sans-serif; font-size: 11px; font-weight: normal; fill: rgb(34, 36, 42);"><tspan x="0" y="9.899999999999999">Manual</tspan></text></g><rect class="djs-hit djs-hit-all" x="0" y="0" width="37" height="14" style="fill: none; stroke-opacity: 0; stroke: white; stroke-width: 15px;"/><rect x="-6" y="-6" rx="3" width="49" height="26" class="djs-outline" style="fill: none;"/></g></g><g class="djs-group"><g class="djs-element djs-shape" data-element-id="Activity_03vxlfy" style="display: block;" transform="matrix(1 0 0 1 3020 238)"><g class="djs-visual"><rect x="0" y="0" width="100" height="80" rx="10" ry="10" style="stroke: rgb(34, 36, 42); stroke-width: 2px; fill: rgb(255, 255, 255); fill-opacity: 0.95;"/><text lineHeight="1.2" class="djs-label" style="font-family: Arial, sans-serif; font-size: 12px; font-weight: normal; fill: rgb(34, 36, 42);"><tspan x="12.299996495246887" y="43.599999999999994">Write to JSON</tspan></text></g><rect class="djs-hit djs-hit-all" x="0" y="0" width="100" height="80" style="fill: none; stroke-opacity: 0; stroke: white; stroke-width: 15px;"/><rect x="-6" y="-6" rx="3" width="112" height="92" class="djs-outline" style="fill: none;"/></g></g><g class="djs-group"><g class="djs-element djs-shape" data-element-id="Activity_1f1miij" style="display: block;" transform="matrix(1 0 0 1 1450 238)"><g class="djs-visual"><rect x="0" y="0" width="100" height="80" rx="10" ry="10" style="stroke: rgb(34, 36, 42); stroke-width: 2px; fill: rgb(255, 255, 255); fill-opacity: 0.95;"/><text lineHeight="1.2" class="djs-label" style="font-family: Arial, sans-serif; font-size: 12px; font-weight: normal; fill: rgb(34, 36, 42);"><tspan x="16.641666412353516" y="22">Generate an </tspan><tspan x="14.974998474121094" y="36.4">access token </tspan><tspan x="25.641664505004883" y="50.8">using the </tspan><tspan x="14.974998474121094" y="65.19999999999999">refresh token</tspan></text></g><rect class="djs-hit djs-hit-all" x="0" y="0" width="100" height="80" style="fill: none; stroke-opacity: 0; stroke: white; stroke-width: 15px;"/><rect x="-6" y="-6" rx="3" width="112" height="92" class="djs-outline" style="fill: none;"/></g></g><g class="djs-group"><g class="djs-element djs-shape" data-element-id="Event_0uni3px" style="display: block;" transform="matrix(1 0 0 1 1672 392)"><g class="djs-visual"><circle cx="18" cy="18" r="18" style="stroke: rgb(34, 36, 42); stroke-width: 1px; fill: rgb(255, 255, 255); fill-opacity: 0.95;"/><circle cx="18" cy="18" r="15" style="stroke: rgb(34, 36, 42); stroke-width: 1px; fill: none;"/><path d="M 18,7.2 l 9,16.2 l -18,0 Z" style="fill: rgb(34, 36, 42); stroke-width: 1px; stroke: rgb(34, 36, 42);"/></g><rect class="djs-hit djs-hit-all" x="0" y="0" width="36" height="36" style="fill: none; stroke-opacity: 0; stroke: white; stroke-width: 15px;"/><rect x="-6" y="-6" rx="3" width="48" height="48" class="djs-outline" style="fill: none;"/></g></g><g class="djs-group"><g class="djs-element djs-shape" data-element-id="Event_0uni3px_label" style="display: block;" transform="matrix(1 0 0 1 1645 438)"><g class="djs-visual"><text lineHeight="1.2" class="djs-label" style="font-family: Arial, sans-serif; font-size: 11px; font-weight: normal; fill: rgb(34, 36, 42);"><tspan x="0" y="9.899999999999999">Throw exception if</tspan><tspan x="6.484156489372253" y="23.099999999999998">creating access </tspan><tspan x="16.959693908691406" y="36.3">token failed</tspan></text></g><rect class="djs-hit djs-hit-all" x="0" y="0" width="90" height="40" style="fill: none; stroke-opacity: 0; stroke: white; stroke-width: 15px;"/><rect x="-6" y="-6" rx="3" width="102" height="52" class="djs-outline" style="fill: none;"/></g></g><g class="djs-group"><g class="djs-element djs-shape" data-element-id="Event_1bd1r3i" style="display: block;" transform="matrix(1 0 0 1 3282 260)"><g class="djs-visual"><circle cx="18" cy="18" r="18" style="stroke: rgb(34, 36, 42); stroke-width: 4px; fill: rgb(255, 255, 255); fill-opacity: 0.95;"/></g><rect class="djs-hit djs-hit-all" x="0" y="0" width="36" height="36" style="fill: none; stroke-opacity: 0; stroke: white; stroke-width: 15px;"/><rect x="-6" y="-6" rx="3" width="48" height="48" class="djs-outline" style="fill: none;"/></g></g><g class="djs-group"><g class="djs-element djs-shape" data-element-id="Event_1bd1r3i_label" style="display: block;" transform="matrix(1 0 0 1 3260 196)"><g class="djs-visual"><text lineHeight="1.2" class="djs-label" style="font-family: Arial, sans-serif; font-size: 11px; font-weight: normal; fill: rgb(34, 36, 42);"><tspan x="20.006250381469727" y="9.899999999999999">Process </tspan><tspan x="0" y="23.099999999999998">complete, return </tspan><tspan x="5.10571014881134" y="36.3">the path of the </tspan><tspan x="16.509382247924805" y="49.5">JSON file</tspan></text></g><rect class="djs-hit djs-hit-all" x="0" y="0" width="80" height="53" style="fill: none; stroke-opacity: 0; stroke: white; stroke-width: 15px;"/><rect x="-6" y="-6" rx="3" width="92" height="65" class="djs-outline" style="fill: none;"/></g></g><g class="djs-group"><g class="djs-element djs-shape" data-element-id="Activity_0r2d9b8" style="display: block;" transform="matrix(1 0 0 1 2160 25)"><g class="djs-visual"><rect x="0" y="0" width="710" height="490" rx="10" ry="10" style="stroke: rgb(34, 36, 42); stroke-width: 2px; fill: rgb(255, 255, 255); fill-opacity: 0.95;"/><text lineHeight="1.2" class="djs-label" style="font-family: Arial, sans-serif; font-size: 12px; font-weight: normal; fill: rgb(34, 36, 42);"><tspan x="302.50833237171173" y="15.799999999999999">While pages remain</tspan></text><path d="m 355,483 c 3.526979,0 6.386161,-2.829858 6.386161,-6.320661 0,-3.490806 -2.859182,-6.320661 -6.386161,-6.320661 -3.526978,0 -6.38616,2.829855 -6.38616,6.320661 0,1.745402 0.714797,3.325567 1.870463,4.469381 0.577834,0.571908 1.265885,1.034728 2.029916,1.35457 l -0.718163,-3.909793 m 0.718163,3.909793 -3.885211,0.802902" data-marker="loop" style="fill: rgb(255, 255, 255); stroke-width: 1px; stroke: rgb(34, 36, 42); stroke-linecap: round; stroke-miterlimit: 0.5;"/></g><rect class="djs-hit djs-hit-no-move" x="0" y="0" width="710" height="490" style="fill: none; stroke-opacity: 0; stroke: white; stroke-width: 15px;"/><rect class="djs-hit djs-hit-click-stroke" x="0" y="0" width="710" height="490" style="fill: none; stroke-opacity: 0; stroke: white; stroke-width: 15px;"/><rect class="djs-hit djs-hit-all" x="0" y="0" width="710" height="30" style="fill: none; stroke-opacity: 0; stroke: white; stroke-width: 15px;"/><rect x="-6" y="-6" rx="3" width="722" height="502" class="djs-outline" style="fill: none;"/></g><g class="djs-children"><g class="djs-group"><g class="djs-element djs-shape" data-element-id="Event_1jhku0i" style="display: block;" transform="matrix(1 0 0 1 2200 260)"><g class="djs-visual"><circle cx="18" cy="18" r="18" style="stroke: rgb(34, 36, 42); stroke-width: 2px; fill: rgb(255, 255, 255); fill-opacity: 0.95;"/></g><rect class="djs-hit djs-hit-all" x="0" y="0" width="36" height="36" style="fill: none; stroke-opacity: 0; stroke: white; stroke-width: 15px;"/><rect x="-6" y="-6" rx="3" width="48" height="48" class="djs-outline" style="fill: none;"/></g></g><g class="djs-group"><g class="djs-element djs-shape" data-element-id="Activity_082zana" style="display: block;" transform="matrix(1 0 0 1 2290 238)"><g class="djs-visual"><rect x="0" y="0" width="100" height="80" rx="10" ry="10" style="stroke: rgb(34, 36, 42); stroke-width: 2px; fill: rgb(255, 255, 255); fill-opacity: 0.95;"/><text lineHeight="1.2" class="djs-label" style="font-family: Arial, sans-serif; font-size: 12px; font-weight: normal; fill: rgb(34, 36, 42);"><tspan x="18.17721176147461" y="29.200000000000003">Get page of </tspan><tspan x="13.316665649414062" y="43.6">products from </tspan><tspan x="36.8499995470047" y="58">Zoho</tspan></text></g><rect class="djs-hit djs-hit-all" x="0" y="0" width="100" height="80" style="fill: none; stroke-opacity: 0; stroke: white; stroke-width: 15px;"/><rect x="-6" y="-6" rx="3" width="112" height="92" class="djs-outline" style="fill: none;"/></g></g><g class="djs-group"><g class="djs-element djs-shape" data-element-id="DataStoreReference_1hk2slh" style="display: block;" transform="matrix(1 0 0 1 2315 125)"><g class="djs-visual"><path d="m  0,6.65 l  0,36.885245901639344 c  1.639344262295082,8.196721311475411 47.540983606557376,8.196721311475411  49.18032786885246,0 l  0,-36.885245901639344 c -1.639344262295082,-8.196721311475411 -47.540983606557376,-8.196721311475411 -49.18032786885246,0c  1.639344262295082,8.196721311475411 47.540983606557376,8.196721311475411  49.18032786885246,0 m  -49.18032786885246,5.737704918032787c  1.639344262295082,8.196721311475411 47.540983606557376,8.196721311475411 49.18032786885246,0m  -49.18032786885246,5.737704918032787c  1.639344262295082,8.196721311475411 47.540983606557376,8.196721311475411  49.18032786885246,0" style="fill: rgb(255, 255, 255); stroke-width: 2px; stroke: rgb(34, 36, 42); fill-opacity: 0.95;"/></g><rect class="djs-hit djs-hit-all" x="0" y="0" width="50" height="50" style="fill: none; stroke-opacity: 0; stroke: white; stroke-width: 15px;"/><rect x="-6" y="-6" rx="3" width="62" height="62" class="djs-outline" style="fill: none;"/></g></g><g class="djs-group"><g class="djs-element djs-shape" data-element-id="DataStoreReference_1hk2slh_label" style="display: block;" transform="matrix(1 0 0 1 2328 103)"><g class="djs-visual"><text lineHeight="1.2" class="djs-label" style="font-family: Arial, sans-serif; font-size: 11px; font-weight: normal; fill: rgb(34, 36, 42);"><tspan x="0" y="9.899999999999999">Zoho</tspan></text></g><rect class="djs-hit djs-hit-all" x="0" y="0" width="25" height="14" style="fill: none; stroke-opacity: 0; stroke: white; stroke-width: 15px;"/><rect x="-6" y="-6" rx="3" width="37" height="26" class="djs-outline" style="fill: none;"/></g></g><g class="djs-group"><g class="djs-element djs-shape" data-element-id="Gateway_1pajz97" style="display: block;" transform="matrix(1 0 0 1 2455 253)"><g class="djs-visual"><polygon points="25,0 50,25 25,50 0,25" style="stroke: rgb(34, 36, 42); stroke-width: 2px; fill: rgb(255, 255, 255); fill-opacity: 0.95;"/><path d="m 16,15 7.42857142857143,9.714285714285715 -7.42857142857143,9.714285714285715 3.428571428571429,0 5.714285714285715,-7.464228571428572 5.714285714285715,7.464228571428572 3.428571428571429,0 -7.42857142857143,-9.714285714285715 7.42857142857143,-9.714285714285715 -3.428571428571429,0 -5.714285714285715,7.464228571428572 -5.714285714285715,-7.464228571428572 -3.428571428571429,0 z" style="fill: rgb(34, 36, 42); stroke-width: 1px; stroke: rgb(34, 36, 42);"/></g><rect class="djs-hit djs-hit-all" x="0" y="0" width="50" height="50" style="fill: none; stroke-opacity: 0; stroke: white; stroke-width: 15px;"/><rect x="-6" y="-6" rx="3" width="62" height="62" class="djs-outline" style="fill: none;"/></g></g><g class="djs-group"><g class="djs-element djs-shape" data-element-id="Gateway_1pajz97_label" style="display: block;" transform="matrix(1 0 0 1 2455 216)"><g class="djs-visual"><text lineHeight="1.2" class="djs-label" style="font-family: Arial, sans-serif; font-size: 11px; font-weight: normal; fill: rgb(34, 36, 42);"><tspan x="2.8932056427001953" y="9.899999999999999">Products </tspan><tspan x="0" y="23.099999999999998">retrieved?</tspan></text></g><rect class="djs-hit djs-hit-all" x="0" y="0" width="50" height="27" style="fill: none; stroke-opacity: 0; stroke: white; stroke-width: 15px;"/><rect x="-6" y="-6" rx="3" width="62" height="39" class="djs-outline" style="fill: none;"/></g></g><g class="djs-group"><g class="djs-element djs-shape" data-element-id="Activity_08ir6a5" style="display: block;" transform="matrix(1 0 0 1 2575 263)"><g class="djs-visual"><rect x="0" y="0" width="30" height="30" rx="8" ry="8" style="stroke: rgb(34, 36, 42); stroke-width: 2px; fill: rgb(255, 255, 255);"/><path d="m 30,30 c 9.966553,-6.27276 -8.000926,-7.91932 2.968968,-14.938 l -8.802728,0 c -10.969894,7.01868 6.997585,8.66524 -2.968967,14.938 z m -7,-12 l 5,0 m -4.5,3 l 4.5,0 m -3,3 l 5,0m -4,3 l 5,0" style="fill: white; stroke-width: 1px; stroke: darkred;"/><text class="djs-label" style="font-family: Arial, sans-serif; font-size: 11px;"><tspan x="0" y="43.80000019073486">Append to </tspan><tspan x="0" y="55.53333377838135">products variable</tspan></text></g><rect class="djs-hit djs-hit-all" x="0" y="0" width="30" height="30" style="fill: none; stroke-opacity: 0; stroke: white; stroke-width: 15px;"/><rect x="-6" y="-6" rx="3" width="42" height="42" class="djs-outline" style="fill: none;"/></g></g><g class="djs-group"><g class="djs-element djs-shape" data-element-id="Event_14i7bfg" style="display: block;" transform="matrix(1 0 0 1 2462 392)"><g class="djs-visual"><circle cx="18" cy="18" r="18" style="stroke: rgb(34, 36, 42); stroke-width: 1px; fill: rgb(255, 255, 255); fill-opacity: 0.95;"/><circle cx="18" cy="18" r="15" style="stroke: rgb(34, 36, 42); stroke-width: 1px; fill: none;"/><path d="M 18,7.2 l 9,16.2 l -18,0 Z" style="fill: rgb(34, 36, 42); stroke-width: 1px; stroke: rgb(34, 36, 42);"/></g><rect class="djs-hit djs-hit-all" x="0" y="0" width="36" height="36" style="fill: none; stroke-opacity: 0; stroke: white; stroke-width: 15px;"/><rect x="-6" y="-6" rx="3" width="48" height="48" class="djs-outline" style="fill: none;"/></g></g><g class="djs-group"><g class="djs-element djs-shape" data-element-id="Event_14i7bfg_label" style="display: block;" transform="matrix(1 0 0 1 2435 435)"><g class="djs-visual"><text lineHeight="1.2" class="djs-label" style="font-family: Arial, sans-serif; font-size: 11px; font-weight: normal; fill: rgb(34, 36, 42);"><tspan x="0" y="9.899999999999999">Throw exception if </tspan><tspan x="21.93575370311737" y="23.099999999999998">retrieving </tspan><tspan x="8.78784453868866" y="36.3">products failed</tspan></text></g><rect class="djs-hit djs-hit-all" x="0" y="0" width="90" height="40" style="fill: none; stroke-opacity: 0; stroke: white; stroke-width: 15px;"/><rect x="-6" y="-6" rx="3" width="102" height="52" class="djs-outline" style="fill: none;"/></g></g><g class="djs-group"><g class="djs-element djs-shape" data-element-id="Gateway_07bjmpr" style="display: block;" transform="matrix(1 0 0 1 2675 253)"><g class="djs-visual"><polygon points="25,0 50,25 25,50 0,25" style="stroke: rgb(34, 36, 42); stroke-width: 2px; fill: rgb(255, 255, 255); fill-opacity: 0.95;"/><path d="m 16,15 7.42857142857143,9.714285714285715 -7.42857142857143,9.714285714285715 3.428571428571429,0 5.714285714285715,-7.464228571428572 5.714285714285715,7.464228571428572 3.428571428571429,0 -7.42857142857143,-9.714285714285715 7.42857142857143,-9.714285714285715 -3.428571428571429,0 -5.714285714285715,7.464228571428572 -5.714285714285715,-7.464228571428572 -3.428571428571429,0 z" style="fill: rgb(34, 36, 42); stroke-width: 1px; stroke: rgb(34, 36, 42);"/></g><rect class="djs-hit djs-hit-all" x="0" y="0" width="50" height="50" style="fill: none; stroke-opacity: 0; stroke: white; stroke-width: 15px;"/><rect x="-6" y="-6" rx="3" width="62" height="62" class="djs-outline" style="fill: none;"/></g></g><g class="djs-group"><g class="djs-element djs-shape" data-element-id="Gateway_07bjmpr_label" style="display: block;" transform="matrix(1 0 0 1 2661 216)"><g class="djs-visual"><text lineHeight="1.2" class="djs-label" style="font-family: Arial, sans-serif; font-size: 11px; font-weight: normal; fill: rgb(34, 36, 42);"><tspan x="0" y="9.899999999999999">Are there pages </tspan><tspan x="28.064885020256042" y="23.099999999999998">left?</tspan></text></g><rect class="djs-hit djs-hit-all" x="0" y="0" width="78" height="27" style="fill: none; stroke-opacity: 0; stroke: white; stroke-width: 15px;"/><rect x="-6" y="-6" rx="3" width="90" height="39" class="djs-outline" style="fill: none;"/></g></g><g class="djs-group"><g class="djs-element djs-shape" data-element-id="Event_03xlyzr" style="display: block;" transform="matrix(1 0 0 1 2802 260)"><g class="djs-visual"><circle cx="18" cy="18" r="18" style="stroke: rgb(34, 36, 42); stroke-width: 4px; fill: rgb(255, 255, 255); fill-opacity: 0.95;"/></g><rect class="djs-hit djs-hit-all" x="0" y="0" width="36" height="36" style="fill: none; stroke-opacity: 0; stroke: white; stroke-width: 15px;"/><rect x="-6" y="-6" rx="3" width="48" height="48" class="djs-outline" style="fill: none;"/></g></g><g class="djs-group"><g class="djs-element djs-shape" data-element-id="Event_03xlyzr_label" style="display: block;" transform="matrix(1 0 0 1 2788 226)"><g class="djs-visual"><text lineHeight="1.2" class="djs-label" style="font-family: Arial, sans-serif; font-size: 11px; font-weight: normal; fill: rgb(34, 36, 42);"><tspan x="0" y="9.899999999999999">Move to next </tspan><tspan x="19.178378105163574" y="23.099999999999998">page</tspan></text></g><rect class="djs-hit djs-hit-all" x="0" y="0" width="64" height="27" style="fill: none; stroke-opacity: 0; stroke: white; stroke-width: 15px;"/><rect x="-6" y="-6" rx="3" width="76" height="39" class="djs-outline" style="fill: none;"/></g></g><g class="djs-group"><g class="djs-element djs-shape" data-element-id="Event_1y4byhk" style="display: block;" transform="matrix(1 0 0 1 2802 392)"><g class="djs-visual"><circle cx="18" cy="18" r="18" style="stroke: rgb(34, 36, 42); stroke-width: 4px; fill: rgb(255, 255, 255); fill-opacity: 0.95;"/></g><rect class="djs-hit djs-hit-all" x="0" y="0" width="36" height="36" style="fill: none; stroke-opacity: 0; stroke: white; stroke-width: 15px;"/><rect x="-6" y="-6" rx="3" width="48" height="48" class="djs-outline" style="fill: none;"/></g></g><g class="djs-group"><g class="djs-element djs-shape" data-element-id="Event_1y4byhk_label" style="display: block;" transform="matrix(1 0 0 1 2789 373)"><g class="djs-visual"><text lineHeight="1.2" class="djs-label" style="font-family: Arial, sans-serif; font-size: 11px; font-weight: normal; fill: rgb(34, 36, 42);"><tspan x="0" y="9.899999999999999">Exit the loop</tspan></text></g><rect class="djs-hit djs-hit-all" x="0" y="0" width="61" height="14" style="fill: none; stroke-opacity: 0; stroke: white; stroke-width: 15px;"/><rect x="-6" y="-6" rx="3" width="73" height="26" class="djs-outline" style="fill: none;"/></g></g><g class="djs-group"><g class="djs-element djs-connection" data-element-id="Flow_1efn84l" style="display: block;"><g class="djs-visual"><path d="m  2236,278L2290,278 " style="fill: none; stroke-width: 2px; stroke: rgb(34, 36, 42); stroke-linejoin: round; marker-end: url('#sequenceflow-end-_FFFFFF-hsl_225_10_15_-1yhm4sbejjz9f84cp2ekbzjbd');"/></g><polyline points="2236,278 2290,278 " class="djs-hit djs-hit-stroke" style="fill: none; stroke-opacity: 0; stroke: white; stroke-width: 15px;"/><rect x="2230" y="272" rx="3" width="66" height="12" class="djs-outline" style="fill: none;"/></g></g><g class="djs-group"><g class="djs-element djs-connection" data-element-id="Flow_1kcuaox" style="display: block;"><g class="djs-visual"><path d="m  2390,278L2455,278 " style="fill: none; stroke-width: 2px; stroke: rgb(34, 36, 42); stroke-linejoin: round; marker-end: url('#sequenceflow-end-_FFFFFF-hsl_225_10_15_-1yhm4sbejjz9f84cp2ekbzjbd');"/></g><polyline points="2390,278 2455,278 " class="djs-hit djs-hit-stroke" style="fill: none; stroke-opacity: 0; stroke: white; stroke-width: 15px;"/><rect x="2384" y="272" rx="3" width="77" height="12" class="djs-outline" style="fill: none;"/></g></g><g class="djs-group"><g class="djs-element djs-connection" data-element-id="Flow_1ccmmvl" style="display: block;"><g class="djs-visual"><path d="m  2505,278L2575,278 " style="fill: none; stroke-width: 2px; stroke: rgb(34, 36, 42); stroke-linejoin: round; marker-end: url('#sequenceflow-end-_FFFFFF-hsl_225_10_15_-1yhm4sbejjz9f84cp2ekbzjbd');"/></g><polyline points="2505,278 2575,278 " class="djs-hit djs-hit-stroke" style="fill: none; stroke-opacity: 0; stroke: white; stroke-width: 15px;"/><rect x="2499" y="272" rx="3" width="82" height="12" class="djs-outline" style="fill: none;"/></g></g><g class="djs-group"><g class="djs-element djs-shape" data-element-id="Flow_1ccmmvl_label" style="display: block;" transform="matrix(1 0 0 1 2532 260)"><g class="djs-visual"><text lineHeight="1.2" class="djs-label" style="font-family: Arial, sans-serif; font-size: 11px; font-weight: normal; fill: rgb(34, 36, 42);"><tspan x="0" y="9.899999999999999">yes</tspan></text></g><rect class="djs-hit djs-hit-all" x="0" y="0" width="17" height="14" style="fill: none; stroke-opacity: 0; stroke: white; stroke-width: 15px;"/><rect x="-6" y="-6" rx="3" width="29" height="26" class="djs-outline" style="fill: none;"/></g></g><g class="djs-group"><g class="djs-element djs-connection" data-element-id="Flow_1gni2wu" style="display: block;"><g class="djs-visual"><path d="m  2480,303L2480,392 " style="fill: none; stroke-width: 2px; stroke: rgb(34, 36, 42); stroke-linejoin: round; marker-end: url('#sequenceflow-end-_FFFFFF-hsl_225_10_15_-1yhm4sbejjz9f84cp2ekbzjbd'); marker-start: url('#conditional-default-flow-marker-_FFFFFF-hsl_225_10_15_-1yhm4sbejjz9f84cp2ekbzjbd');"/></g><polyline points="2480,303 2480,392 " class="djs-hit djs-hit-stroke" style="fill: none; stroke-opacity: 0; stroke: white; stroke-width: 15px;"/><rect x="2474" y="297" rx="3" width="12" height="101" class="djs-outline" style="fill: none;"/></g></g><g class="djs-group"><g class="djs-element djs-shape" data-element-id="Flow_1gni2wu_label" style="display: block;" transform="matrix(1 0 0 1 2489 346)"><g class="djs-visual"><text lineHeight="1.2" class="djs-label" style="font-family: Arial, sans-serif; font-size: 11px; font-weight: normal; fill: rgb(34, 36, 42);"><tspan x="0" y="9.899999999999999">no</tspan></text></g><rect class="djs-hit djs-hit-all" x="0" y="0" width="13" height="14" style="fill: none; stroke-opacity: 0; stroke: white; stroke-width: 15px;"/><rect x="-6" y="-6" rx="3" width="25" height="26" class="djs-outline" style="fill: none;"/></g></g><g class="djs-group"><g class="djs-element djs-connection" data-element-id="Flow_1f1qmha" style="display: block;"><g class="djs-visual"><path d="m  2605,278L2675,278 " style="fill: none; stroke-width: 2px; stroke: rgb(34, 36, 42); stroke-linejoin: round; marker-end: url('#sequenceflow-end-_FFFFFF-hsl_225_10_15_-1yhm4sbejjz9f84cp2ekbzjbd');"/></g><polyline points="2605,278 2675,278 " class="djs-hit djs-hit-stroke" style="fill: none; stroke-opacity: 0; stroke: white; stroke-width: 15px;"/><rect x="2599" y="272" rx="3" width="82" height="12" class="djs-outline" style="fill: none;"/></g></g><g class="djs-group"><g class="djs-element djs-connection" data-element-id="Flow_17w52aj" style="display: block;"><g class="djs-visual"><path d="m  2725,278L2802,278 " style="fill: none; stroke-width: 2px; stroke: rgb(34, 36, 42); stroke-linejoin: round; marker-end: url('#sequenceflow-end-_FFFFFF-hsl_225_10_15_-1yhm4sbejjz9f84cp2ekbzjbd');"/></g><polyline points="2725,278 2802,278 " class="djs-hit djs-hit-stroke" style="fill: none; stroke-opacity: 0; stroke: white; stroke-width: 15px;"/><rect x="2719" y="272" rx="3" width="89" height="12" class="djs-outline" style="fill: none;"/></g></g><g class="djs-group"><g class="djs-element djs-shape" data-element-id="Flow_17w52aj_label" style="display: block;" transform="matrix(1 0 0 1 2756 260)"><g class="djs-visual"><text lineHeight="1.2" class="djs-label" style="font-family: Arial, sans-serif; font-size: 11px; font-weight: normal; fill: rgb(34, 36, 42);"><tspan x="0" y="9.899999999999999">yes</tspan></text></g><rect class="djs-hit djs-hit-all" x="0" y="0" width="17" height="14" style="fill: none; stroke-opacity: 0; stroke: white; stroke-width: 15px;"/><rect x="-6" y="-6" rx="3" width="29" height="26" class="djs-outline" style="fill: none;"/></g></g><g class="djs-group"><g class="djs-element djs-connection" data-element-id="Flow_1nb7e6s" style="display: block;"><g class="djs-visual"><path d="m  2700,303L2700,410 L2802,410 " style="fill: none; stroke-width: 2px; stroke: rgb(34, 36, 42); stroke-linejoin: round; marker-end: url('#sequenceflow-end-_FFFFFF-hsl_225_10_15_-1yhm4sbejjz9f84cp2ekbzjbd'); marker-start: url('#conditional-default-flow-marker-_FFFFFF-hsl_225_10_15_-1yhm4sbejjz9f84cp2ekbzjbd');"/></g><polyline points="2700,303 2700,410 2802,410 " class="djs-hit djs-hit-stroke" style="fill: none; stroke-opacity: 0; stroke: white; stroke-width: 15px;"/><rect x="2694" y="297" rx="3" width="114" height="119" class="djs-outline" style="fill: none;"/></g></g><g class="djs-group"><g class="djs-element djs-shape" data-element-id="Flow_1nb7e6s_label" style="display: block;" transform="matrix(1 0 0 1 2709 355)"><g class="djs-visual"><text lineHeight="1.2" class="djs-label" style="font-family: Arial, sans-serif; font-size: 11px; font-weight: normal; fill: rgb(34, 36, 42);"><tspan x="0" y="9.899999999999999">no</tspan></text></g><rect class="djs-hit djs-hit-all" x="0" y="0" width="13" height="14" style="fill: none; stroke-opacity: 0; stroke: white; stroke-width: 15px;"/><rect x="-6" y="-6" rx="3" width="25" height="26" class="djs-outline" style="fill: none;"/></g></g></g></g><g class="djs-group"><g class="djs-element djs-shape" data-element-id="DataObjectReference_16c0ygt" style="display: block;" transform="matrix(1 0 0 1 3052 105)"><g class="djs-visual"><path d="m 0,0 28.23529411764706,0 7.058823529411765,8.196721311475411 0,40.98360655737705 -35.294117647058826,0 0,-49.18032786885246 28.23529411764706,0 0,8.196721311475411 7.058823529411765,0" style="fill: rgb(255, 255, 255); stroke-width: 2px; stroke: rgb(34, 36, 42); fill-opacity: 0.95;"/></g><rect class="djs-hit djs-hit-all" x="0" y="0" width="36" height="50" style="fill: none; stroke-opacity: 0; stroke: white; stroke-width: 15px;"/><rect x="-6" y="-6" rx="3" width="48" height="62" class="djs-outline" style="fill: none;"/></g></g><g class="djs-group"><g class="djs-element djs-shape" data-element-id="DataObjectReference_16c0ygt_label" style="display: block;" transform="matrix(1 0 0 1 3028 75)"><g class="djs-visual"><text lineHeight="1.2" class="djs-label" style="font-family: Arial, sans-serif; font-size: 11px; font-weight: normal; fill: rgb(34, 36, 42);"><tspan x="0" y="9.899999999999999">JSON file in local </tspan><tspan x="21.474358677864075" y="23.099999999999998">fileshare</tspan></text></g><rect class="djs-hit djs-hit-all" x="0" y="0" width="84" height="27" style="fill: none; stroke-opacity: 0; stroke: white; stroke-width: 15px;"/><rect x="-6" y="-6" rx="3" width="96" height="39" class="djs-outline" style="fill: none;"/></g></g><g class="djs-group"><g class="djs-element djs-shape" data-element-id="Gateway_0ev1t41" style="display: block;" transform="matrix(1 0 0 1 1665 253)"><g class="djs-visual"><polygon points="25,0 50,25 25,50 0,25" style="stroke: rgb(34, 36, 42); stroke-width: 2px; fill: rgb(255, 255, 255); fill-opacity: 0.95;"/><path d="m 16,15 7.42857142857143,9.714285714285715 -7.42857142857143,9.714285714285715 3.428571428571429,0 5.714285714285715,-7.464228571428572 5.714285714285715,7.464228571428572 3.428571428571429,0 -7.42857142857143,-9.714285714285715 7.42857142857143,-9.714285714285715 -3.428571428571429,0 -5.714285714285715,7.464228571428572 -5.714285714285715,-7.464228571428572 -3.428571428571429,0 z" style="fill: rgb(34, 36, 42); stroke-width: 1px; stroke: rgb(34, 36, 42);"/></g><rect class="djs-hit djs-hit-all" x="0" y="0" width="50" height="50" style="fill: none; stroke-opacity: 0; stroke: white; stroke-width: 15px;"/><rect x="-6" y="-6" rx="3" width="62" height="62" class="djs-outline" style="fill: none;"/></g></g><g class="djs-group"><g class="djs-element djs-shape" data-element-id="Gateway_0ev1t41_label" style="display: block;" transform="matrix(1 0 0 1 1657 203)"><g class="djs-visual"><text lineHeight="1.2" class="djs-label" style="font-family: Arial, sans-serif; font-size: 11px; font-weight: normal; fill: rgb(34, 36, 42);"><tspan x="0.5306483507156372" y="9.899999999999999">Access token </tspan><tspan x="17.411540985107422" y="23.099999999999998">gotten </tspan><tspan x="0" y="36.3">successfully?</tspan></text></g><rect class="djs-hit djs-hit-all" x="0" y="0" width="66" height="40" style="fill: none; stroke-opacity: 0; stroke: white; stroke-width: 15px;"/><rect x="-6" y="-6" rx="3" width="78" height="52" class="djs-outline" style="fill: none;"/></g></g><g class="djs-group"><g class="djs-element djs-shape" data-element-id="Activity_0i0ucwd" style="display: block;" transform="matrix(1 0 0 1 1815 263)"><g class="djs-visual"><rect x="0" y="0" width="30" height="30" rx="8" ry="8" style="stroke: rgb(34, 36, 42); stroke-width: 2px; fill: rgb(255, 255, 255);"/><path d="m 30,30 c 9.966553,-6.27276 -8.000926,-7.91932 2.968968,-14.938 l -8.802728,0 c -10.969894,7.01868 6.997585,8.66524 -2.968967,14.938 z m -7,-12 l 5,0 m -4.5,3 l 4.5,0 m -3,3 l 5,0m -4,3 l 5,0" style="fill: white; stroke-width: 1px; stroke: darkred;"/><text class="djs-label" style="font-family: Arial, sans-serif; font-size: 11px;"><tspan x="0" y="43.80000019073486">Initialize products</tspan></text></g><rect class="djs-hit djs-hit-all" x="0" y="0" width="30" height="30" style="fill: none; stroke-opacity: 0; stroke: white; stroke-width: 15px;"/><rect x="-6" y="-6" rx="3" width="42" height="42" class="djs-outline" style="fill: none;"/></g></g><g class="djs-group"><g class="djs-element djs-shape" data-element-id="Activity_0jeadgb" style="display: block;" transform="matrix(1 0 0 1 1935 263)"><g class="djs-visual"><rect x="0" y="0" width="30" height="30" rx="8" ry="8" style="stroke: rgb(34, 36, 42); stroke-width: 2px; fill: rgb(255, 255, 255);"/><path d="m 30,30 c 9.966553,-6.27276 -8.000926,-7.91932 2.968968,-14.938 l -8.802728,0 c -10.969894,7.01868 6.997585,8.66524 -2.968967,14.938 z m -7,-12 l 5,0 m -4.5,3 l 4.5,0 m -3,3 l 5,0m -4,3 l 5,0" style="fill: white; stroke-width: 1px; stroke: darkred;"/><text class="djs-label" style="font-family: Arial, sans-serif; font-size: 11px;"><tspan x="0" y="43.80000019073486">Initialize </tspan><tspan x="0" y="55.53333377838135">pagesLeft</tspan></text></g><rect class="djs-hit djs-hit-all" x="0" y="0" width="30" height="30" style="fill: none; stroke-opacity: 0; stroke: white; stroke-width: 15px;"/><rect x="-6" y="-6" rx="3" width="42" height="42" class="djs-outline" style="fill: none;"/></g></g><g class="djs-group"><g class="djs-element djs-shape" data-element-id="Activity_07523a9" style="display: block;" transform="matrix(1 0 0 1 2055 263)"><g class="djs-visual"><rect x="0" y="0" width="30" height="30" rx="8" ry="8" style="stroke: rgb(34, 36, 42); stroke-width: 2px; fill: rgb(255, 255, 255);"/><path d="m 30,30 c 9.966553,-6.27276 -8.000926,-7.91932 2.968968,-14.938 l -8.802728,0 c -10.969894,7.01868 6.997585,8.66524 -2.968967,14.938 z m -7,-12 l 5,0 m -4.5,3 l 4.5,0 m -3,3 l 5,0m -4,3 l 5,0" style="fill: white; stroke-width: 1px; stroke: darkred;"/><text class="djs-label" style="font-family: Arial, sans-serif; font-size: 11px;"><tspan x="0" y="43.80000019073486">Initialize </tspan><tspan x="0" y="55.53333377838135">pageNumber</tspan></text></g><rect class="djs-hit djs-hit-all" x="0" y="0" width="30" height="30" style="fill: none; stroke-opacity: 0; stroke: white; stroke-width: 15px;"/><rect x="-6" y="-6" rx="3" width="42" height="42" class="djs-outline" style="fill: none;"/></g></g><g class="djs-group"><g class="djs-element djs-shape djs-frame" data-element-id="Group_14yhvxd" style="display: block;" transform="matrix(1 0 0 1 2930 -50)"><g class="djs-visual"><rect x="0" y="0" width="290" height="620" rx="10" ry="10" style="stroke: rgb(34, 36, 42); stroke-width: 1px; fill: none; stroke-dasharray: 8, 3, 1, 3; pointer-events: none;"/></g><rect class="djs-hit djs-hit-stroke" x="0" y="0" width="290" height="620" style="fill: none; stroke-opacity: 0; stroke: white; stroke-width: 15px;"/><rect x="-6" y="-6" rx="3" width="302" height="632" class="djs-outline" style="fill: none;"/></g></g><g class="djs-group"><g class="djs-element djs-shape" data-element-id="Group_14yhvxd_label" style="display: block;" transform="matrix(1 0 0 1 3047 -43)"><g class="djs-visual"><text lineHeight="1.2" class="djs-label" style="font-family: Arial, sans-serif; font-size: 11px; font-weight: normal; fill: rgb(34, 36, 42);"><tspan x="0" y="9.899999999999999">Write JSON</tspan></text></g><rect class="djs-hit djs-hit-all" x="0" y="0" width="57" height="14" style="fill: none; stroke-opacity: 0; stroke: white; stroke-width: 15px;"/><rect x="-6" y="-6" rx="3" width="69" height="26" class="djs-outline" style="fill: none;"/></g></g><g class="djs-group"><g class="djs-element djs-shape djs-frame" data-element-id="Group_04fh8z9" style="display: block;" transform="matrix(1 0 0 1 1780 -50)"><g class="djs-visual"><rect x="0" y="0" width="1130" height="620" rx="10" ry="10" style="stroke: rgb(34, 36, 42); stroke-width: 1px; fill: none; stroke-dasharray: 8, 3, 1, 3; pointer-events: none;"/></g><rect class="djs-hit djs-hit-stroke" x="0" y="0" width="1130" height="620" style="fill: none; stroke-opacity: 0; stroke: white; stroke-width: 15px;"/><rect x="-6" y="-6" rx="3" width="1142" height="632" class="djs-outline" style="fill: none;"/></g></g><g class="djs-group"><g class="djs-element djs-shape" data-element-id="Group_04fh8z9_label" style="display: block;" transform="matrix(1 0 0 1 2302 -43)"><g class="djs-visual"><text lineHeight="1.2" class="djs-label" style="font-family: Arial, sans-serif; font-size: 11px; font-weight: normal; fill: rgb(34, 36, 42);"><tspan x="0" y="9.899999999999999">Retrieve products</tspan><tspan x="18.433343052864075" y="23.099999999999998">from Zoho</tspan></text></g><rect class="djs-hit djs-hit-all" x="0" y="0" width="87" height="27" style="fill: none; stroke-opacity: 0; stroke: white; stroke-width: 15px;"/><rect x="-6" y="-6" rx="3" width="99" height="39" class="djs-outline" style="fill: none;"/></g></g><g class="djs-group"><g class="djs-element djs-shape djs-frame" data-element-id="Group_0w36xgm" style="display: block;" transform="matrix(1 0 0 1 1380 -50)"><g class="djs-visual"><rect x="0" y="0" width="380" height="620" rx="10" ry="10" style="stroke: rgb(34, 36, 42); stroke-width: 1px; fill: none; stroke-dasharray: 8, 3, 1, 3; pointer-events: none;"/></g><rect class="djs-hit djs-hit-stroke" x="0" y="0" width="380" height="620" style="fill: none; stroke-opacity: 0; stroke: white; stroke-width: 15px;"/><rect x="-6" y="-6" rx="3" width="392" height="632" class="djs-outline" style="fill: none;"/></g></g><g class="djs-group"><g class="djs-element djs-shape" data-element-id="Group_0w36xgm_label" style="display: block;" transform="matrix(1 0 0 1 1526 -43)"><g class="djs-visual"><text lineHeight="1.2" class="djs-label" style="font-family: Arial, sans-serif; font-size: 11px; font-weight: normal; fill: rgb(34, 36, 42);"><tspan x="9.086817622184753" y="9.899999999999999">Get an access </tspan><tspan x="0" y="23.099999999999998">token for the Zoho</tspan><tspan x="11.920906066894531" y="36.3">API using the </tspan><tspan x="12.002409815788269" y="49.5">refresh token</tspan></text></g><rect class="djs-hit djs-hit-all" x="0" y="0" width="89" height="53" style="fill: none; stroke-opacity: 0; stroke: white; stroke-width: 15px;"/><rect x="-6" y="-6" rx="3" width="101" height="65" class="djs-outline" style="fill: none;"/></g></g><g class="djs-group"><g class="djs-element djs-connection" data-element-id="DataOutputAssociation_0loimbu" style="display: block;"><g class="djs-visual"><polyline points="3070,238 3070,155 " style="fill: none; stroke: rgb(34, 36, 42); stroke-width: 2px; stroke-dasharray: 0.5, 5; stroke-linecap: round; stroke-linejoin: round; marker-end: url('#association-end-_FFFFFF-hsl_225_10_15_-1yhm4sbejjz9f84cp2ekbzjbd');"/></g><polyline points="3070,238 3070,155 " class="djs-hit djs-hit-stroke" style="fill: none; stroke-opacity: 0; stroke: white; stroke-width: 15px;"/><rect x="3064" y="149" rx="3" width="12" height="95" class="djs-outline" style="fill: none;"/></g></g><g class="djs-group"><g class="djs-element djs-connection" data-element-id="Flow_11lz0s5" style="display: block;"><g class="djs-visual"><path d="m  3120,278L3282,278 " style="fill: none; stroke-width: 2px; stroke: rgb(34, 36, 42); stroke-linejoin: round; marker-end: url('#sequenceflow-end-_FFFFFF-hsl_225_10_15_-1yhm4sbejjz9f84cp2ekbzjbd');"/></g><polyline points="3120,278 3282,278 " class="djs-hit djs-hit-stroke" style="fill: none; stroke-opacity: 0; stroke: white; stroke-width: 15px;"/><rect x="3114" y="272" rx="3" width="174" height="12" class="djs-outline" style="fill: none;"/></g></g><g class="djs-group"><g class="djs-element djs-connection" data-element-id="DataInputAssociation_0f5b9ka" style="display: block;"><g class="djs-visual"><polyline points="2340,175 2340,238 " style="fill: none; stroke: rgb(34, 36, 42); stroke-width: 2px; stroke-dasharray: 0.5, 5; stroke-linecap: round; stroke-linejoin: round; marker-end: url('#association-end-_FFFFFF-hsl_225_10_15_-1yhm4sbejjz9f84cp2ekbzjbd');"/></g><polyline points="2340,175 2340,238 " class="djs-hit djs-hit-stroke" style="fill: none; stroke-opacity: 0; stroke: white; stroke-width: 15px;"/><rect x="2334" y="169" rx="3" width="12" height="75" class="djs-outline" style="fill: none;"/></g></g><g class="djs-group"><g class="djs-element djs-connection" data-element-id="Flow_0vivs6q" style="display: block;"><g class="djs-visual"><path d="m  2870,278L3020,278 " style="fill: none; stroke-width: 2px; stroke: rgb(34, 36, 42); stroke-linejoin: round; marker-end: url('#sequenceflow-end-_FFFFFF-hsl_225_10_15_-1yhm4sbejjz9f84cp2ekbzjbd');"/></g><polyline points="2870,278 3020,278 " class="djs-hit djs-hit-stroke" style="fill: none; stroke-opacity: 0; stroke: white; stroke-width: 15px;"/><rect x="2864" y="272" rx="3" width="162" height="12" class="djs-outline" style="fill: none;"/></g></g><g class="djs-group"><g class="djs-element djs-connection" data-element-id="Flow_0r9s1g4" style="display: block;"><g class="djs-visual"><path d="m  1348,278L1450,278 " style="fill: none; stroke-width: 2px; stroke: rgb(34, 36, 42); stroke-linejoin: round; marker-end: url('#sequenceflow-end-_FFFFFF-hsl_225_10_15_-1yhm4sbejjz9f84cp2ekbzjbd');"/></g><polyline points="1348,278 1450,278 " class="djs-hit djs-hit-stroke" style="fill: none; stroke-opacity: 0; stroke: white; stroke-width: 15px;"/><rect x="1342" y="272" rx="3" width="114" height="12" class="djs-outline" style="fill: none;"/></g></g><g class="djs-group"><g class="djs-element djs-connection" data-element-id="Flow_1ub6eiz" style="display: block;"><g class="djs-visual"><path d="m  1550,278L1665,278 " style="fill: none; stroke-width: 2px; stroke: rgb(34, 36, 42); stroke-linejoin: round; marker-end: url('#sequenceflow-end-_FFFFFF-hsl_225_10_15_-1yhm4sbejjz9f84cp2ekbzjbd');"/></g><polyline points="1550,278 1665,278 " class="djs-hit djs-hit-stroke" style="fill: none; stroke-opacity: 0; stroke: white; stroke-width: 15px;"/><rect x="1544" y="272" rx="3" width="127" height="12" class="djs-outline" style="fill: none;"/></g></g><g class="djs-group"><g class="djs-element djs-connection" data-element-id="Flow_1dhzec4" style="display: block;"><g class="djs-visual"><path d="m  1690,303L1690,392 " style="fill: none; stroke-width: 2px; stroke: rgb(34, 36, 42); stroke-linejoin: round; marker-end: url('#sequenceflow-end-_FFFFFF-hsl_225_10_15_-1yhm4sbejjz9f84cp2ekbzjbd'); marker-start: url('#conditional-default-flow-marker-_FFFFFF-hsl_225_10_15_-1yhm4sbejjz9f84cp2ekbzjbd');"/></g><polyline points="1690,303 1690,392 " class="djs-hit djs-hit-stroke" style="fill: none; stroke-opacity: 0; stroke: white; stroke-width: 15px;"/><rect x="1684" y="297" rx="3" width="12" height="101" class="djs-outline" style="fill: none;"/></g></g><g class="djs-group"><g class="djs-element djs-shape" data-element-id="Flow_1dhzec4_label" style="display: block;" transform="matrix(1 0 0 1 1699 345)"><g class="djs-visual"><text lineHeight="1.2" class="djs-label" style="font-family: Arial, sans-serif; font-size: 11px; font-weight: normal; fill: rgb(34, 36, 42);"><tspan x="0" y="9.899999999999999">no</tspan></text></g><rect class="djs-hit djs-hit-all" x="0" y="0" width="13" height="14" style="fill: none; stroke-opacity: 0; stroke: white; stroke-width: 15px;"/><rect x="-6" y="-6" rx="3" width="25" height="26" class="djs-outline" style="fill: none;"/></g></g><g class="djs-group"><g class="djs-element djs-connection" data-element-id="Flow_0kylsfx" style="display: block;"><g class="djs-visual"><path d="m  1715,278L1815,278 " style="fill: none; stroke-width: 2px; stroke: rgb(34, 36, 42); stroke-linejoin: round; marker-end: url('#sequenceflow-end-_FFFFFF-hsl_225_10_15_-1yhm4sbejjz9f84cp2ekbzjbd');"/></g><polyline points="1715,278 1815,278 " class="djs-hit djs-hit-stroke" style="fill: none; stroke-opacity: 0; stroke: white; stroke-width: 15px;"/><rect x="1709" y="272" rx="3" width="112" height="12" class="djs-outline" style="fill: none;"/></g></g><g class="djs-group"><g class="djs-element djs-shape" data-element-id="Flow_0kylsfx_label" style="display: block;" transform="matrix(1 0 0 1 1731 258)"><g class="djs-visual"><text lineHeight="1.2" class="djs-label" style="font-family: Arial, sans-serif; font-size: 11px; font-weight: normal; fill: rgb(34, 36, 42);"><tspan x="0" y="9.899999999999999">yes</tspan></text></g><rect class="djs-hit djs-hit-all" x="0" y="0" width="17" height="14" style="fill: none; stroke-opacity: 0; stroke: white; stroke-width: 15px;"/><rect x="-6" y="-6" rx="3" width="29" height="26" class="djs-outline" style="fill: none;"/></g></g><g class="djs-group"><g class="djs-element djs-connection" data-element-id="Flow_0ib50il" style="display: block;"><g class="djs-visual"><path d="m  1845,278L1935,278 " style="fill: none; stroke-width: 2px; stroke: rgb(34, 36, 42); stroke-linejoin: round; marker-end: url('#sequenceflow-end-_FFFFFF-hsl_225_10_15_-1yhm4sbejjz9f84cp2ekbzjbd');"/></g><polyline points="1845,278 1935,278 " class="djs-hit djs-hit-stroke" style="fill: none; stroke-opacity: 0; stroke: white; stroke-width: 15px;"/><rect x="1839" y="272" rx="3" width="102" height="12" class="djs-outline" style="fill: none;"/></g></g><g class="djs-group"><g class="djs-element djs-connection" data-element-id="Flow_1nnjl0m" style="display: block;"><g class="djs-visual"><path d="m  1965,278L2055,278 " style="fill: none; stroke-width: 2px; stroke: rgb(34, 36, 42); stroke-linejoin: round; marker-end: url('#sequenceflow-end-_FFFFFF-hsl_225_10_15_-1yhm4sbejjz9f84cp2ekbzjbd');"/></g><polyline points="1965,278 2055,278 " class="djs-hit djs-hit-stroke" style="fill: none; stroke-opacity: 0; stroke: white; stroke-width: 15px;"/><rect x="1959" y="272" rx="3" width="102" height="12" class="djs-outline" style="fill: none;"/></g></g><g class="djs-group"><g class="djs-element djs-connection" data-element-id="Flow_0pkp1fl" style="display: block;"><g class="djs-visual"><path d="m  2085,278L2160,278 " style="fill: none; stroke-width: 2px; stroke: rgb(34, 36, 42); stroke-linejoin: round; marker-end: url('#sequenceflow-end-_FFFFFF-hsl_225_10_15_-1yhm4sbejjz9f84cp2ekbzjbd');"/></g><polyline points="2085,278 2160,278 " class="djs-hit djs-hit-stroke" style="fill: none; stroke-opacity: 0; stroke: white; stroke-width: 15px;"/><rect x="2079" y="272" rx="3" width="87" height="12" class="djs-outline" style="fill: none;"/></g></g></svg>