<?xml version="1.0" encoding="utf-8"?>
<!-- created with bpmn-js / http://bpmn.io -->
<!DOCTYPE svg PUBLIC "-//W3C//DTD SVG 1.1//EN" "http://www.w3.org/Graphics/SVG/1.1/DTD/svg11.dtd">
<svg xmlns="http://www.w3.org/2000/svg" xmlns:xlink="http://www.w3.org/1999/xlink" width="1693" height="592" viewBox="346 -36 1693 592" version="1.1"><defs><marker id="association-end-_FFFFFF-hsl_225_10_15_-3dyi2hm05z2icckyf84naoded" viewBox="0 0 20 20" refX="12" refY="10" markerWidth="10" markerHeight="10" orient="auto"><path d="M 1 5 L 11 10 L 1 15" style="fill: none; stroke-width: 1.5px; stroke-linecap: round; stroke-dasharray: 10000, 1; stroke: rgb(34, 36, 42);"/></marker><marker id="sequenceflow-end-_FFFFFF-hsl_225_10_15_-3dyi2hm05z2icckyf84naoded" viewBox="0 0 20 20" refX="11" refY="10" markerWidth="10" markerHeight="10" orient="auto"><path d="M 1 5 L 11 10 L 1 15 Z" style="fill: rgb(34, 36, 42); stroke-width: 1px; stroke-linecap: round; stroke-dasharray: 10000, 1; stroke: rgb(34, 36, 42);"/></marker><marker id="conditional-default-flow-marker-_FFFFFF-hsl_225_10_15_-3dyi2hm05z2icckyf84naoded" viewBox="0 0 20 20" refX="0" refY="10" markerWidth="10" markerHeight="10" orient="auto"><path d="M 6 4 L 10 16" style="fill: rgb(34, 36, 42); stroke-width: 1px; stroke-linecap: round; stroke-dasharray: 10000, 1; stroke: rgb(34, 36, 42);"/></marker></defs><g class="djs-group"><g class="djs-element djs-shape" data-element-id="StartEvent_1" style="display: block;" transform="matrix(1 0 0 1 352 240)"><g class="djs-visual"><circle cx="18" cy="18" r="18" style="stroke: rgb(34, 36, 42); stroke-width: 2px; fill: rgb(255, 255, 255); fill-opacity: 0.95;"/><text class="djs-label" style="font-family: Arial, sans-serif; font-size: 12px;"><tspan x="13" y="22.5">M</tspan></text></g><rect class="djs-hit djs-hit-all" x="0" y="0" width="36" height="36" style="fill: none; stroke-opacity: 0; stroke: white; stroke-width: 15px;"/><rect x="-6" y="-6" rx="3" width="48" height="48" class="djs-outline" style="fill: none;"/></g></g><g class="djs-group"><g class="djs-element djs-shape" data-element-id="StartEvent_1_label" style="display: block;" transform="matrix(1 0 0 1 352 276)"><g class="djs-visual"><text lineHeight="1.2" class="djs-label" style="font-family: Arial, sans-serif; font-size: 11px; font-weight: normal; fill: rgb(34, 36, 42);"><tspan x="0" y="9.899999999999999">Manual</tspan></text></g><rect class="djs-hit djs-hit-all" x="0" y="0" width="37" height="14" style="fill: none; stroke-opacity: 0; stroke: white; stroke-width: 15px;"/><rect x="-6" y="-6" rx="3" width="49" height="26" class="djs-outline" style="fill: none;"/></g></g><g class="djs-group"><g class="djs-element djs-shape" data-element-id="Activity_0lf4tsq" style="display: block;" transform="matrix(1 0 0 1 1770 218)"><g class="djs-visual"><rect x="0" y="0" width="100" height="80" rx="10" ry="10" style="stroke: rgb(34, 36, 42); stroke-width: 2px; fill: rgb(255, 255, 255); fill-opacity: 0.95;"/><text lineHeight="1.2" class="djs-label" style="font-family: Arial, sans-serif; font-size: 12px; font-weight: normal; fill: rgb(34, 36, 42);"><tspan x="17.4326171875" y="29.200000000000003">Write a local </tspan><tspan x="12.1611328125" y="43.6">JSON file with </tspan><tspan x="27.6484375" y="58">contacts</tspan></text></g><rect class="djs-hit djs-hit-all" x="0" y="0" width="100" height="80" style="fill: none; stroke-opacity: 0; stroke: white; stroke-width: 15px;"/><rect x="-6" y="-6" rx="3" width="112" height="92" class="djs-outline" style="fill: none;"/></g></g><g class="djs-group"><g class="djs-element djs-shape" data-element-id="Event_1i5bkvn" style="display: block;" transform="matrix(1 0 0 1 1972 240)"><g class="djs-visual"><circle cx="18" cy="18" r="18" style="stroke: rgb(34, 36, 42); stroke-width: 4px; fill: rgb(255, 255, 255); fill-opacity: 0.95;"/></g><rect class="djs-hit djs-hit-all" x="0" y="0" width="36" height="36" style="fill: none; stroke-opacity: 0; stroke: white; stroke-width: 15px;"/><rect x="-6" y="-6" rx="3" width="48" height="48" class="djs-outline" style="fill: none;"/></g></g><g class="djs-group"><g class="djs-element djs-shape" data-element-id="Event_1i5bkvn_label" style="display: block;" transform="matrix(1 0 0 1 1948 283)"><g class="djs-visual"><text lineHeight="1.2" class="djs-label" style="font-family: Arial, sans-serif; font-size: 11px; font-weight: normal; fill: rgb(34, 36, 42);"><tspan x="0" y="9.899999999999999">Success, end the </tspan><tspan x="22.687255859375" y="23.099999999999998">process</tspan></text></g><rect class="djs-hit djs-hit-all" x="0" y="0" width="85" height="27" style="fill: none; stroke-opacity: 0; stroke: white; stroke-width: 15px;"/><rect x="-6" y="-6" rx="3" width="97" height="39" class="djs-outline" style="fill: none;"/></g></g><g class="djs-group"><g class="djs-element djs-shape" data-element-id="DataObjectReference_0wu0691" style="display: block;" transform="matrix(1 0 0 1 1802 105)"><g class="djs-visual"><path d="m 0,0 28.23529411764706,0 7.058823529411765,8.196721311475411 0,40.98360655737705 -35.294117647058826,0 0,-49.18032786885246 28.23529411764706,0 0,8.196721311475411 7.058823529411765,0" style="fill: rgb(255, 255, 255); stroke-width: 2px; stroke: rgb(34, 36, 42); fill-opacity: 0.95;"/></g><rect class="djs-hit djs-hit-all" x="0" y="0" width="36" height="50" style="fill: none; stroke-opacity: 0; stroke: white; stroke-width: 15px;"/><rect x="-6" y="-6" rx="3" width="48" height="62" class="djs-outline" style="fill: none;"/></g></g><g class="djs-group"><g class="djs-element djs-shape" data-element-id="DataObjectReference_0wu0691_label" style="display: block;" transform="matrix(1 0 0 1 1783 75)"><g class="djs-visual"><text lineHeight="1.2" class="djs-label" style="font-family: Arial, sans-serif; font-size: 11px; font-weight: normal; fill: rgb(34, 36, 42);"><tspan x="0" y="9.899999999999999">Local JSON file</tspan></text></g><rect class="djs-hit djs-hit-all" x="0" y="0" width="76" height="14" style="fill: none; stroke-opacity: 0; stroke: white; stroke-width: 15px;"/><rect x="-6" y="-6" rx="3" width="88" height="26" class="djs-outline" style="fill: none;"/></g></g><g class="djs-group"><g class="djs-element djs-shape" data-element-id="Activity_1hc8o36" style="display: block;" transform="matrix(1 0 0 1 1030 40)"><g class="djs-visual"><rect x="0" y="0" width="645" height="450" rx="10" ry="10" style="stroke: rgb(34, 36, 42); stroke-width: 2px; fill: rgb(255, 255, 255); fill-opacity: 0.95;"/><text lineHeight="1.2" class="djs-label" style="font-family: Arial, sans-serif; font-size: 12px; font-weight: normal; fill: rgb(34, 36, 42);"><tspan x="257.138671875" y="15.799999999999999">While new pages remain</tspan></text><path d="m 322.5,443 c 3.526979,0 6.386161,-2.829858 6.386161,-6.320661 0,-3.490806 -2.859182,-6.320661 -6.386161,-6.320661 -3.526978,0 -6.38616,2.829855 -6.38616,6.320661 0,1.745402 0.714797,3.325567 1.870463,4.469381 0.577834,0.571908 1.265885,1.034728 2.029916,1.35457 l -0.718163,-3.909793 m 0.718163,3.909793 -3.885211,0.802902" data-marker="loop" style="fill: rgb(255, 255, 255); stroke-width: 1px; stroke: rgb(34, 36, 42); stroke-linecap: round; stroke-miterlimit: 0.5;"/></g><rect class="djs-hit djs-hit-no-move" x="0" y="0" width="645" height="450" style="fill: none; stroke-opacity: 0; stroke: white; stroke-width: 15px;"/><rect class="djs-hit djs-hit-click-stroke" x="0" y="0" width="645" height="450" style="fill: none; stroke-opacity: 0; stroke: white; stroke-width: 15px;"/><rect class="djs-hit djs-hit-all" x="0" y="0" width="645" height="30" style="fill: none; stroke-opacity: 0; stroke: white; stroke-width: 15px;"/><rect x="-6" y="-6" rx="3" width="657" height="462" class="djs-outline" style="fill: none;"/></g><g class="djs-children"><g class="djs-group"><g class="djs-element djs-shape" data-element-id="Event_1mw8wi3" style="display: block;" transform="matrix(1 0 0 1 1070 240)"><g class="djs-visual"><circle cx="18" cy="18" r="18" style="stroke: rgb(34, 36, 42); stroke-width: 2px; fill: rgb(255, 255, 255); fill-opacity: 0.95;"/></g><rect class="djs-hit djs-hit-all" x="0" y="0" width="36" height="36" style="fill: none; stroke-opacity: 0; stroke: white; stroke-width: 15px;"/><rect x="-6" y="-6" rx="3" width="48" height="48" class="djs-outline" style="fill: none;"/></g></g><g class="djs-group"><g class="djs-element djs-shape" data-element-id="Activity_0gbrxfq" style="display: block;" transform="matrix(1 0 0 1 1155 218)"><g class="djs-visual"><rect x="0" y="0" width="100" height="80" rx="10" ry="10" style="stroke: rgb(34, 36, 42); stroke-width: 2px; fill: rgb(255, 255, 255); fill-opacity: 0.95;"/><text lineHeight="1.2" class="djs-label" style="font-family: Arial, sans-serif; font-size: 12px; font-weight: normal; fill: rgb(34, 36, 42);"><tspan x="16.3125" y="36.4">Get contacts </tspan><tspan x="7.8203125" y="50.8">from Zoho CRM</tspan></text></g><rect class="djs-hit djs-hit-all" x="0" y="0" width="100" height="80" style="fill: none; stroke-opacity: 0; stroke: white; stroke-width: 15px;"/><rect x="-6" y="-6" rx="3" width="112" height="92" class="djs-outline" style="fill: none;"/></g></g><g class="djs-group"><g class="djs-element djs-shape" data-element-id="Gateway_0frn4pt" style="display: block;" transform="matrix(1 0 0 1 1310 233)"><g class="djs-visual"><polygon points="25,0 50,25 25,50 0,25" style="stroke: rgb(34, 36, 42); stroke-width: 2px; fill: rgb(255, 255, 255); fill-opacity: 0.95;"/><path d="m 16,15 7.42857142857143,9.714285714285715 -7.42857142857143,9.714285714285715 3.428571428571429,0 5.714285714285715,-7.464228571428572 5.714285714285715,7.464228571428572 3.428571428571429,0 -7.42857142857143,-9.714285714285715 7.42857142857143,-9.714285714285715 -3.428571428571429,0 -5.714285714285715,7.464228571428572 -5.714285714285715,-7.464228571428572 -3.428571428571429,0 z" style="fill: rgb(34, 36, 42); stroke-width: 1px; stroke: rgb(34, 36, 42);"/></g><rect class="djs-hit djs-hit-all" x="0" y="0" width="50" height="50" style="fill: none; stroke-opacity: 0; stroke: white; stroke-width: 15px;"/><rect x="-6" y="-6" rx="3" width="62" height="62" class="djs-outline" style="fill: none;"/></g></g><g class="djs-group"><g class="djs-element djs-shape" data-element-id="Gateway_0frn4pt_label" style="display: block;" transform="matrix(1 0 0 1 1311 196)"><g class="djs-visual"><text lineHeight="1.2" class="djs-label" style="font-family: Arial, sans-serif; font-size: 11px; font-weight: normal; fill: rgb(34, 36, 42);"><tspan x="2.50634765625" y="9.899999999999999">Contacts </tspan><tspan x="0" y="23.099999999999998">retrieved?</tspan></text></g><rect class="djs-hit djs-hit-all" x="0" y="0" width="49" height="27" style="fill: none; stroke-opacity: 0; stroke: white; stroke-width: 15px;"/><rect x="-6" y="-6" rx="3" width="61" height="39" class="djs-outline" style="fill: none;"/></g></g><g class="djs-group"><g class="djs-element djs-shape" data-element-id="Event_03dzrm2" style="display: block;" transform="matrix(1 0 0 1 1317 352)"><g class="djs-visual"><circle cx="18" cy="18" r="18" style="stroke: rgb(34, 36, 42); stroke-width: 1px; fill: rgb(255, 255, 255); fill-opacity: 0.95;"/><circle cx="18" cy="18" r="15" style="stroke: rgb(34, 36, 42); stroke-width: 1px; fill: none;"/><path d="M 18,7.2 l 9,16.2 l -18,0 Z" style="fill: rgb(34, 36, 42); stroke-width: 1px; stroke: rgb(34, 36, 42);"/></g><rect class="djs-hit djs-hit-all" x="0" y="0" width="36" height="36" style="fill: none; stroke-opacity: 0; stroke: white; stroke-width: 15px;"/><rect x="-6" y="-6" rx="3" width="48" height="48" class="djs-outline" style="fill: none;"/></g></g><g class="djs-group"><g class="djs-element djs-shape" data-element-id="Event_03dzrm2_label" style="display: block;" transform="matrix(1 0 0 1 1291 395)"><g class="djs-visual"><text lineHeight="1.2" class="djs-label" style="font-family: Arial, sans-serif; font-size: 11px; font-weight: normal; fill: rgb(34, 36, 42);"><tspan x="21.14794921875" y="9.899999999999999">Throw an </tspan><tspan x="15.283447265625" y="23.099999999999998">exception if </tspan><tspan x="0" y="36.3">contacts were not </tspan><tspan x="22.17919921875" y="49.5">retrieved</tspan></text></g><rect class="djs-hit djs-hit-all" x="0" y="0" width="88" height="53" style="fill: none; stroke-opacity: 0; stroke: white; stroke-width: 15px;"/><rect x="-6" y="-6" rx="3" width="100" height="65" class="djs-outline" style="fill: none;"/></g></g><g class="djs-group"><g class="djs-element djs-shape" data-element-id="DataStoreReference_1gtdko1" style="display: block;" transform="matrix(1 0 0 1 1180 105)"><g class="djs-visual"><path d="m  0,6.65 l  0,36.885245901639344 c  1.639344262295082,8.196721311475411 47.540983606557376,8.196721311475411  49.18032786885246,0 l  0,-36.885245901639344 c -1.639344262295082,-8.196721311475411 -47.540983606557376,-8.196721311475411 -49.18032786885246,0c  1.639344262295082,8.196721311475411 47.540983606557376,8.196721311475411  49.18032786885246,0 m  -49.18032786885246,5.737704918032787c  1.639344262295082,8.196721311475411 47.540983606557376,8.196721311475411 49.18032786885246,0m  -49.18032786885246,5.737704918032787c  1.639344262295082,8.196721311475411 47.540983606557376,8.196721311475411  49.18032786885246,0" style="fill: rgb(255, 255, 255); stroke-width: 2px; stroke: rgb(34, 36, 42); fill-opacity: 0.95;"/></g><rect class="djs-hit djs-hit-all" x="0" y="0" width="50" height="50" style="fill: none; stroke-opacity: 0; stroke: white; stroke-width: 15px;"/><rect x="-6" y="-6" rx="3" width="62" height="62" class="djs-outline" style="fill: none;"/></g></g><g class="djs-group"><g class="djs-element djs-shape" data-element-id="DataStoreReference_1gtdko1_label" style="display: block;" transform="matrix(1 0 0 1 1180 75)"><g class="djs-visual"><text lineHeight="1.2" class="djs-label" style="font-family: Arial, sans-serif; font-size: 11px; font-weight: normal; fill: rgb(34, 36, 42);"><tspan x="0" y="9.899999999999999">Zoho CRM</tspan></text></g><rect class="djs-hit djs-hit-all" x="0" y="0" width="53" height="14" style="fill: none; stroke-opacity: 0; stroke: white; stroke-width: 15px;"/><rect x="-6" y="-6" rx="3" width="65" height="26" class="djs-outline" style="fill: none;"/></g></g><g class="djs-group"><g class="djs-element djs-shape" data-element-id="Activity_1qlw4bq" style="display: block;" transform="matrix(1 0 0 1 1410 243)"><g class="djs-visual"><rect x="0" y="0" width="30" height="30" rx="8" ry="8" style="stroke: rgb(34, 36, 42); stroke-width: 2px; fill: rgb(255, 255, 255);"/><path d="m 30,30 c 9.966553,-6.27276 -8.000926,-7.91932 2.968968,-14.938 l -8.802728,0 c -10.969894,7.01868 6.997585,8.66524 -2.968967,14.938 z m -7,-12 l 5,0 m -4.5,3 l 4.5,0 m -3,3 l 5,0m -4,3 l 5,0" style="fill: white; stroke-width: 1px; stroke: darkred;"/><text class="djs-label" style="font-family: Arial, sans-serif; font-size: 11px;"><tspan x="0" y="44">Append to </tspan><tspan x="0" y="56">contacts</tspan></text></g><rect class="djs-hit djs-hit-all" x="0" y="0" width="30" height="30" style="fill: none; stroke-opacity: 0; stroke: white; stroke-width: 15px;"/><rect x="-6" y="-6" rx="3" width="42" height="42" class="djs-outline" style="fill: none;"/></g></g><g class="djs-group"><g class="djs-element djs-shape" data-element-id="Gateway_1q2kqyu" style="display: block;" transform="matrix(1 0 0 1 1490 233)"><g class="djs-visual"><polygon points="25,0 50,25 25,50 0,25" style="stroke: rgb(34, 36, 42); stroke-width: 2px; fill: rgb(255, 255, 255); fill-opacity: 0.95;"/><path d="m 16,15 7.42857142857143,9.714285714285715 -7.42857142857143,9.714285714285715 3.428571428571429,0 5.714285714285715,-7.464228571428572 5.714285714285715,7.464228571428572 3.428571428571429,0 -7.42857142857143,-9.714285714285715 7.42857142857143,-9.714285714285715 -3.428571428571429,0 -5.714285714285715,7.464228571428572 -5.714285714285715,-7.464228571428572 -3.428571428571429,0 z" style="fill: rgb(34, 36, 42); stroke-width: 1px; stroke: rgb(34, 36, 42);"/></g><rect class="djs-hit djs-hit-all" x="0" y="0" width="50" height="50" style="fill: none; stroke-opacity: 0; stroke: white; stroke-width: 15px;"/><rect x="-6" y="-6" rx="3" width="62" height="62" class="djs-outline" style="fill: none;"/></g></g><g class="djs-group"><g class="djs-element djs-shape" data-element-id="Gateway_1q2kqyu_label" style="display: block;" transform="matrix(1 0 0 1 1478 196)"><g class="djs-visual"><text lineHeight="1.2" class="djs-label" style="font-family: Arial, sans-serif; font-size: 11px; font-weight: normal; fill: rgb(34, 36, 42);"><tspan x="0" y="9.899999999999999">Are there more </tspan><tspan x="18.140625" y="23.099999999999998">pages?</tspan></text></g><rect class="djs-hit djs-hit-all" x="0" y="0" width="73" height="27" style="fill: none; stroke-opacity: 0; stroke: white; stroke-width: 15px;"/><rect x="-6" y="-6" rx="3" width="85" height="39" class="djs-outline" style="fill: none;"/></g></g><g class="djs-group"><g class="djs-element djs-shape" data-element-id="Event_140dptr" style="display: block;" transform="matrix(1 0 0 1 1587 240)"><g class="djs-visual"><circle cx="18" cy="18" r="18" style="stroke: rgb(34, 36, 42); stroke-width: 4px; fill: rgb(255, 255, 255); fill-opacity: 0.95;"/></g><rect class="djs-hit djs-hit-all" x="0" y="0" width="36" height="36" style="fill: none; stroke-opacity: 0; stroke: white; stroke-width: 15px;"/><rect x="-6" y="-6" rx="3" width="48" height="48" class="djs-outline" style="fill: none;"/></g></g><g class="djs-group"><g class="djs-element djs-shape" data-element-id="Event_140dptr_label" style="display: block;" transform="matrix(1 0 0 1 1570 283)"><g class="djs-visual"><text lineHeight="1.2" class="djs-label" style="font-family: Arial, sans-serif; font-size: 11px; font-weight: normal; fill: rgb(34, 36, 42);"><tspan x="0" y="9.899999999999999">Go to the next </tspan><tspan x="22.779296875" y="23.099999999999998">page</tspan></text></g><rect class="djs-hit djs-hit-all" x="0" y="0" width="71" height="27" style="fill: none; stroke-opacity: 0; stroke: white; stroke-width: 15px;"/><rect x="-6" y="-6" rx="3" width="83" height="39" class="djs-outline" style="fill: none;"/></g></g><g class="djs-group"><g class="djs-element djs-shape" data-element-id="Event_1np3rmq" style="display: block;" transform="matrix(1 0 0 1 1587 352)"><g class="djs-visual"><circle cx="18" cy="18" r="18" style="stroke: rgb(34, 36, 42); stroke-width: 4px; fill: rgb(255, 255, 255); fill-opacity: 0.95;"/></g><rect class="djs-hit djs-hit-all" x="0" y="0" width="36" height="36" style="fill: none; stroke-opacity: 0; stroke: white; stroke-width: 15px;"/><rect x="-6" y="-6" rx="3" width="48" height="48" class="djs-outline" style="fill: none;"/></g></g><g class="djs-group"><g class="djs-element djs-shape" data-element-id="Event_1np3rmq_label" style="display: block;" transform="matrix(1 0 0 1 1575 395)"><g class="djs-visual"><text lineHeight="1.2" class="djs-label" style="font-family: Arial, sans-serif; font-size: 11px; font-weight: normal; fill: rgb(34, 36, 42);"><tspan x="0" y="9.899999999999999">Exit the loop</tspan></text></g><rect class="djs-hit djs-hit-all" x="0" y="0" width="62" height="14" style="fill: none; stroke-opacity: 0; stroke: white; stroke-width: 15px;"/><rect x="-6" y="-6" rx="3" width="74" height="26" class="djs-outline" style="fill: none;"/></g></g><g class="djs-group"><g class="djs-element djs-connection" data-element-id="Flow_03y58jg" style="display: block;"><g class="djs-visual"><path d="m  1255,258L1310,258 " style="fill: none; stroke-width: 2px; stroke: rgb(34, 36, 42); stroke-linejoin: round; marker-end: url('#sequenceflow-end-_FFFFFF-hsl_225_10_15_-3dyi2hm05z2icckyf84naoded');"/></g><polyline points="1255,258 1310,258 " class="djs-hit djs-hit-stroke" style="fill: none; stroke-opacity: 0; stroke: white; stroke-width: 15px;"/><rect x="1249" y="252" rx="3" width="67" height="12" class="djs-outline" style="fill: none;"/></g></g><g class="djs-group"><g class="djs-element djs-connection" data-element-id="Flow_19t4ltn" style="display: block;"><g class="djs-visual"><path d="m  1335,283L1335,352 " style="fill: none; stroke-width: 2px; stroke: rgb(34, 36, 42); stroke-linejoin: round; marker-end: url('#sequenceflow-end-_FFFFFF-hsl_225_10_15_-3dyi2hm05z2icckyf84naoded'); marker-start: url('#conditional-default-flow-marker-_FFFFFF-hsl_225_10_15_-3dyi2hm05z2icckyf84naoded');"/></g><polyline points="1335,283 1335,352 " class="djs-hit djs-hit-stroke" style="fill: none; stroke-opacity: 0; stroke: white; stroke-width: 15px;"/><rect x="1329" y="277" rx="3" width="12" height="81" class="djs-outline" style="fill: none;"/></g></g><g class="djs-group"><g class="djs-element djs-shape" data-element-id="Flow_19t4ltn_label" style="display: block;" transform="matrix(1 0 0 1 1344 315)"><g class="djs-visual"><text lineHeight="1.2" class="djs-label" style="font-family: Arial, sans-serif; font-size: 11px; font-weight: normal; fill: rgb(34, 36, 42);"><tspan x="0" y="9.899999999999999">no</tspan></text></g><rect class="djs-hit djs-hit-all" x="0" y="0" width="13" height="14" style="fill: none; stroke-opacity: 0; stroke: white; stroke-width: 15px;"/><rect x="-6" y="-6" rx="3" width="25" height="26" class="djs-outline" style="fill: none;"/></g></g><g class="djs-group"><g class="djs-element djs-connection" data-element-id="Flow_1qe30zs" style="display: block;"><g class="djs-visual"><path d="m  1106,258L1155,258 " style="fill: none; stroke-width: 2px; stroke: rgb(34, 36, 42); stroke-linejoin: round; marker-end: url('#sequenceflow-end-_FFFFFF-hsl_225_10_15_-3dyi2hm05z2icckyf84naoded');"/></g><polyline points="1106,258 1155,258 " class="djs-hit djs-hit-stroke" style="fill: none; stroke-opacity: 0; stroke: white; stroke-width: 15px;"/><rect x="1100" y="252" rx="3" width="61" height="12" class="djs-outline" style="fill: none;"/></g></g><g class="djs-group"><g class="djs-element djs-connection" data-element-id="Flow_0qahz5s" style="display: block;"><g class="djs-visual"><path d="m  1360,258L1410,258 " style="fill: none; stroke-width: 2px; stroke: rgb(34, 36, 42); stroke-linejoin: round; marker-end: url('#sequenceflow-end-_FFFFFF-hsl_225_10_15_-3dyi2hm05z2icckyf84naoded');"/></g><polyline points="1360,258 1410,258 " class="djs-hit djs-hit-stroke" style="fill: none; stroke-opacity: 0; stroke: white; stroke-width: 15px;"/><rect x="1354" y="252" rx="3" width="62" height="12" class="djs-outline" style="fill: none;"/></g></g><g class="djs-group"><g class="djs-element djs-shape" data-element-id="Flow_0qahz5s_label" style="display: block;" transform="matrix(1 0 0 1 1366 240)"><g class="djs-visual"><text lineHeight="1.2" class="djs-label" style="font-family: Arial, sans-serif; font-size: 11px; font-weight: normal; fill: rgb(34, 36, 42);"><tspan x="0" y="9.899999999999999">yes</tspan></text></g><rect class="djs-hit djs-hit-all" x="0" y="0" width="17" height="14" style="fill: none; stroke-opacity: 0; stroke: white; stroke-width: 15px;"/><rect x="-6" y="-6" rx="3" width="29" height="26" class="djs-outline" style="fill: none;"/></g></g><g class="djs-group"><g class="djs-element djs-connection" data-element-id="Flow_17jb67o" style="display: block;"><g class="djs-visual"><path d="m  1440,258L1490,258 " style="fill: none; stroke-width: 2px; stroke: rgb(34, 36, 42); stroke-linejoin: round; marker-end: url('#sequenceflow-end-_FFFFFF-hsl_225_10_15_-3dyi2hm05z2icckyf84naoded');"/></g><polyline points="1440,258 1490,258 " class="djs-hit djs-hit-stroke" style="fill: none; stroke-opacity: 0; stroke: white; stroke-width: 15px;"/><rect x="1434" y="252" rx="3" width="62" height="12" class="djs-outline" style="fill: none;"/></g></g><g class="djs-group"><g class="djs-element djs-connection" data-element-id="Flow_1gzz9nb" style="display: block;"><g class="djs-visual"><path d="m  1540,258L1587,258 " style="fill: none; stroke-width: 2px; stroke: rgb(34, 36, 42); stroke-linejoin: round; marker-end: url('#sequenceflow-end-_FFFFFF-hsl_225_10_15_-3dyi2hm05z2icckyf84naoded');"/></g><polyline points="1540,258 1587,258 " class="djs-hit djs-hit-stroke" style="fill: none; stroke-opacity: 0; stroke: white; stroke-width: 15px;"/><rect x="1534" y="252" rx="3" width="59" height="12" class="djs-outline" style="fill: none;"/></g></g><g class="djs-group"><g class="djs-element djs-shape" data-element-id="Flow_1gzz9nb_label" style="display: block;" transform="matrix(1 0 0 1 1546 240)"><g class="djs-visual"><text lineHeight="1.2" class="djs-label" style="font-family: Arial, sans-serif; font-size: 11px; font-weight: normal; fill: rgb(34, 36, 42);"><tspan x="0" y="9.899999999999999">yes</tspan></text></g><rect class="djs-hit djs-hit-all" x="0" y="0" width="17" height="14" style="fill: none; stroke-opacity: 0; stroke: white; stroke-width: 15px;"/><rect x="-6" y="-6" rx="3" width="29" height="26" class="djs-outline" style="fill: none;"/></g></g><g class="djs-group"><g class="djs-element djs-connection" data-element-id="Flow_1vf4u7x" style="display: block;"><g class="djs-visual"><path d="m  1515,283L1515,370 L1587,370 " style="fill: none; stroke-width: 2px; stroke: rgb(34, 36, 42); stroke-linejoin: round; marker-end: url('#sequenceflow-end-_FFFFFF-hsl_225_10_15_-3dyi2hm05z2icckyf84naoded'); marker-start: url('#conditional-default-flow-marker-_FFFFFF-hsl_225_10_15_-3dyi2hm05z2icckyf84naoded');"/></g><polyline points="1515,283 1515,370 1587,370 " class="djs-hit djs-hit-stroke" style="fill: none; stroke-opacity: 0; stroke: white; stroke-width: 15px;"/><rect x="1509" y="277" rx="3" width="84" height="99" class="djs-outline" style="fill: none;"/></g></g><g class="djs-group"><g class="djs-element djs-shape" data-element-id="Flow_1vf4u7x_label" style="display: block;" transform="matrix(1 0 0 1 1524 324)"><g class="djs-visual"><text lineHeight="1.2" class="djs-label" style="font-family: Arial, sans-serif; font-size: 11px; font-weight: normal; fill: rgb(34, 36, 42);"><tspan x="0" y="9.899999999999999">no</tspan></text></g><rect class="djs-hit djs-hit-all" x="0" y="0" width="13" height="14" style="fill: none; stroke-opacity: 0; stroke: white; stroke-width: 15px;"/><rect x="-6" y="-6" rx="3" width="25" height="26" class="djs-outline" style="fill: none;"/></g></g></g></g><g class="djs-group"><g class="djs-element djs-shape" data-element-id="Activity_0a0d9b6" style="display: block;" transform="matrix(1 0 0 1 760 243)"><g class="djs-visual"><rect x="0" y="0" width="30" height="30" rx="8" ry="8" style="stroke: rgb(34, 36, 42); stroke-width: 2px; fill: rgb(255, 255, 255);"/><path d="m 30,30 c 9.966553,-6.27276 -8.000926,-7.91932 2.968968,-14.938 l -8.802728,0 c -10.969894,7.01868 6.997585,8.66524 -2.968967,14.938 z m -7,-12 l 5,0 m -4.5,3 l 4.5,0 m -3,3 l 5,0m -4,3 l 5,0" style="fill: white; stroke-width: 1px; stroke: darkred;"/><text class="djs-label" style="font-family: Arial, sans-serif; font-size: 11px;"><tspan x="0" y="44">Assign contacts</tspan></text></g><rect class="djs-hit djs-hit-all" x="0" y="0" width="30" height="30" style="fill: none; stroke-opacity: 0; stroke: white; stroke-width: 15px;"/><rect x="-6" y="-6" rx="3" width="42" height="42" class="djs-outline" style="fill: none;"/></g></g><g class="djs-group"><g class="djs-element djs-shape" data-element-id="Activity_0h4gfky" style="display: block;" transform="matrix(1 0 0 1 850 243)"><g class="djs-visual"><rect x="0" y="0" width="30" height="30" rx="8" ry="8" style="stroke: rgb(34, 36, 42); stroke-width: 2px; fill: rgb(255, 255, 255);"/><path d="m 30,30 c 9.966553,-6.27276 -8.000926,-7.91932 2.968968,-14.938 l -8.802728,0 c -10.969894,7.01868 6.997585,8.66524 -2.968967,14.938 z m -7,-12 l 5,0 m -4.5,3 l 4.5,0 m -3,3 l 5,0m -4,3 l 5,0" style="fill: white; stroke-width: 1px; stroke: darkred;"/><text class="djs-label" style="font-family: Arial, sans-serif; font-size: 11px;"><tspan x="0" y="44">Assign </tspan><tspan x="0" y="56">pagesRemaining</tspan></text></g><rect class="djs-hit djs-hit-all" x="0" y="0" width="30" height="30" style="fill: none; stroke-opacity: 0; stroke: white; stroke-width: 15px;"/><rect x="-6" y="-6" rx="3" width="42" height="42" class="djs-outline" style="fill: none;"/></g></g><g class="djs-group"><g class="djs-element djs-shape" data-element-id="Activity_0w8vcqn" style="display: block;" transform="matrix(1 0 0 1 940 243)"><g class="djs-visual"><rect x="0" y="0" width="30" height="30" rx="8" ry="8" style="stroke: rgb(34, 36, 42); stroke-width: 2px; fill: rgb(255, 255, 255);"/><path d="m 30,30 c 9.966553,-6.27276 -8.000926,-7.91932 2.968968,-14.938 l -8.802728,0 c -10.969894,7.01868 6.997585,8.66524 -2.968967,14.938 z m -7,-12 l 5,0 m -4.5,3 l 4.5,0 m -3,3 l 5,0m -4,3 l 5,0" style="fill: white; stroke-width: 1px; stroke: darkred;"/><text class="djs-label" style="font-family: Arial, sans-serif; font-size: 11px;"><tspan x="0" y="44">Assign </tspan><tspan x="0" y="56">pageNumber</tspan></text></g><rect class="djs-hit djs-hit-all" x="0" y="0" width="30" height="30" style="fill: none; stroke-opacity: 0; stroke: white; stroke-width: 15px;"/><rect x="-6" y="-6" rx="3" width="42" height="42" class="djs-outline" style="fill: none;"/></g></g><g class="djs-group"><g class="djs-element djs-shape" data-element-id="Activity_1y8v23h" style="display: block;" transform="matrix(1 0 0 1 500 218)"><g class="djs-visual"><rect x="0" y="0" width="100" height="80" rx="10" ry="10" style="stroke: rgb(34, 36, 42); stroke-width: 2px; fill: rgb(255, 255, 255); fill-opacity: 0.95;"/><text lineHeight="1.2" class="djs-label" style="font-family: Arial, sans-serif; font-size: 12px; font-weight: normal; fill: rgb(34, 36, 42);"><tspan x="14.8154296875" y="22">Get the Zoho </tspan><tspan x="15.9921875" y="36.4">CRM access </tspan><tspan x="18.318359375" y="50.8">token with a </tspan><tspan x="14.818359375" y="65.19999999999999">refresh token</tspan></text></g><rect class="djs-hit djs-hit-all" x="0" y="0" width="100" height="80" style="fill: none; stroke-opacity: 0; stroke: white; stroke-width: 15px;"/><rect x="-6" y="-6" rx="3" width="112" height="92" class="djs-outline" style="fill: none;"/></g></g><g class="djs-group"><g class="djs-element djs-shape" data-element-id="Gateway_1vwd5wt" style="display: block;" transform="matrix(1 0 0 1 655 233)"><g class="djs-visual"><polygon points="25,0 50,25 25,50 0,25" style="stroke: rgb(34, 36, 42); stroke-width: 2px; fill: rgb(255, 255, 255); fill-opacity: 0.95;"/><path d="m 16,15 7.42857142857143,9.714285714285715 -7.42857142857143,9.714285714285715 3.428571428571429,0 5.714285714285715,-7.464228571428572 5.714285714285715,7.464228571428572 3.428571428571429,0 -7.42857142857143,-9.714285714285715 7.42857142857143,-9.714285714285715 -3.428571428571429,0 -5.714285714285715,7.464228571428572 -5.714285714285715,-7.464228571428572 -3.428571428571429,0 z" style="fill: rgb(34, 36, 42); stroke-width: 1px; stroke: rgb(34, 36, 42);"/></g><rect class="djs-hit djs-hit-all" x="0" y="0" width="50" height="50" style="fill: none; stroke-opacity: 0; stroke: white; stroke-width: 15px;"/><rect x="-6" y="-6" rx="3" width="62" height="62" class="djs-outline" style="fill: none;"/></g></g><g class="djs-group"><g class="djs-element djs-shape" data-element-id="Gateway_1vwd5wt_label" style="display: block;" transform="matrix(1 0 0 1 639 209)"><g class="djs-visual"><text lineHeight="1.2" class="djs-label" style="font-family: Arial, sans-serif; font-size: 11px; font-weight: normal; fill: rgb(34, 36, 42);"><tspan x="0" y="9.899999999999999">Token retrieved?</tspan></text></g><rect class="djs-hit djs-hit-all" x="0" y="0" width="81" height="14" style="fill: none; stroke-opacity: 0; stroke: white; stroke-width: 15px;"/><rect x="-6" y="-6" rx="3" width="93" height="26" class="djs-outline" style="fill: none;"/></g></g><g class="djs-group"><g class="djs-element djs-shape" data-element-id="Event_0fdmqni" style="display: block;" transform="matrix(1 0 0 1 662 352)"><g class="djs-visual"><circle cx="18" cy="18" r="18" style="stroke: rgb(34, 36, 42); stroke-width: 1px; fill: rgb(255, 255, 255); fill-opacity: 0.95;"/><circle cx="18" cy="18" r="15" style="stroke: rgb(34, 36, 42); stroke-width: 1px; fill: none;"/><path d="M 18,7.2 l 9,16.2 l -18,0 Z" style="fill: rgb(34, 36, 42); stroke-width: 1px; stroke: rgb(34, 36, 42);"/></g><rect class="djs-hit djs-hit-all" x="0" y="0" width="36" height="36" style="fill: none; stroke-opacity: 0; stroke: white; stroke-width: 15px;"/><rect x="-6" y="-6" rx="3" width="48" height="48" class="djs-outline" style="fill: none;"/></g></g><g class="djs-group"><g class="djs-element djs-shape" data-element-id="Event_0fdmqni_label" style="display: block;" transform="matrix(1 0 0 1 636 395)"><g class="djs-visual"><text lineHeight="1.2" class="djs-label" style="font-family: Arial, sans-serif; font-size: 11px; font-weight: normal; fill: rgb(34, 36, 42);"><tspan x="21.2294921875" y="9.899999999999999">Throw an </tspan><tspan x="15.364990234375" y="23.099999999999998">exception if </tspan><tspan x="0" y="36.3">access token was </tspan><tspan x="13.0810546875" y="49.5">not retrieved</tspan></text></g><rect class="djs-hit djs-hit-all" x="0" y="0" width="88" height="53" style="fill: none; stroke-opacity: 0; stroke: white; stroke-width: 15px;"/><rect x="-6" y="-6" rx="3" width="100" height="65" class="djs-outline" style="fill: none;"/></g></g><g class="djs-group"><g class="djs-element djs-shape djs-frame" data-element-id="Group_1h1598p" style="display: block;" transform="matrix(1 0 0 1 440 -30)"><g class="djs-visual"><rect x="0" y="0" width="1280" height="580" rx="10" ry="10" style="stroke: rgb(34, 36, 42); stroke-width: 1px; fill: none; stroke-dasharray: 8, 3, 1, 3; pointer-events: none;"/></g><rect class="djs-hit djs-hit-stroke" x="0" y="0" width="1280" height="580" style="fill: none; stroke-opacity: 0; stroke: white; stroke-width: 15px;"/><rect x="-6" y="-6" rx="3" width="1292" height="592" class="djs-outline" style="fill: none;"/></g></g><g class="djs-group"><g class="djs-element djs-shape" data-element-id="Group_1h1598p_label" style="display: block;" transform="matrix(1 0 0 1 1042 -23)"><g class="djs-visual"><text lineHeight="1.2" class="djs-label" style="font-family: Arial, sans-serif; font-size: 11px; font-weight: normal; fill: rgb(34, 36, 42);"><tspan x="0" y="9.899999999999999">Retrieving Zoho </tspan><tspan x="4.0419921875" y="23.099999999999998">CRM contacts</tspan></text></g><rect class="djs-hit djs-hit-all" x="0" y="0" width="78" height="27" style="fill: none; stroke-opacity: 0; stroke: white; stroke-width: 15px;"/><rect x="-6" y="-6" rx="3" width="90" height="39" class="djs-outline" style="fill: none;"/></g></g><g class="djs-group"><g class="djs-element djs-shape djs-frame" data-element-id="Group_031cgcf" style="display: block;" transform="matrix(1 0 0 1 1730 -30)"><g class="djs-visual"><rect x="0" y="0" width="180" height="580" rx="10" ry="10" style="stroke: rgb(34, 36, 42); stroke-width: 1px; fill: none; stroke-dasharray: 8, 3, 1, 3; pointer-events: none;"/></g><rect class="djs-hit djs-hit-stroke" x="0" y="0" width="180" height="580" style="fill: none; stroke-opacity: 0; stroke: white; stroke-width: 15px;"/><rect x="-6" y="-6" rx="3" width="192" height="592" class="djs-outline" style="fill: none;"/></g></g><g class="djs-group"><g class="djs-element djs-shape" data-element-id="Group_031cgcf_label" style="display: block;" transform="matrix(1 0 0 1 1775 -23)"><g class="djs-visual"><text lineHeight="1.2" class="djs-label" style="font-family: Arial, sans-serif; font-size: 11px; font-weight: normal; fill: rgb(34, 36, 42);"><tspan x="0" y="9.899999999999999">Writing to the local</tspan><tspan x="24.63037109375" y="23.099999999999998">fileshare</tspan></text></g><rect class="djs-hit djs-hit-all" x="0" y="0" width="90" height="27" style="fill: none; stroke-opacity: 0; stroke: white; stroke-width: 15px;"/><rect x="-6" y="-6" rx="3" width="102" height="39" class="djs-outline" style="fill: none;"/></g></g><g class="djs-group"><g class="djs-element djs-shape" data-element-id="TextAnnotation_1765p7a" style="display: block;" transform="matrix(1 0 0 1 500 81)"><g class="djs-visual"><rect x="0" y="0" width="190" height="98" rx="0" ry="0" style="stroke: none; stroke-width: 2px; fill: none;"/><path d="m 0, 0 m 10,0 l -10,0 l 0,98 l 10,0" style="fill: none; stroke-width: 2px; stroke: rgb(34, 36, 42);"/><text lineHeight="1.2" class="djs-label" style="font-family: Arial, sans-serif; font-size: 12px; font-weight: normal; fill: rgb(34, 36, 42);"><tspan x="5" y="15.799999999999999">Zoho CRM refresh token is used </tspan><tspan x="5" y="30.199999999999996">in this template to get an access </tspan><tspan x="5" y="44.599999999999994">token. Please use the separate </tspan><tspan x="5" y="58.99999999999999">template for acquiring the refresh </tspan><tspan x="5" y="73.39999999999999">token, and provide it in the </tspan><tspan x="5" y="87.79999999999998">process variables.</tspan></text></g><rect class="djs-hit djs-hit-all" x="0" y="0" width="190" height="98" style="fill: none; stroke-opacity: 0; stroke: white; stroke-width: 15px;"/><rect x="-6" y="-6" rx="3" width="202" height="110" class="djs-outline" style="fill: none;"/></g></g><g class="djs-group"><g class="djs-element djs-connection" data-element-id="DataOutputAssociation_01a75ov" style="display: block;"><g class="djs-visual"><polyline points="1821,218 1822,155 " style="fill: none; stroke: rgb(34, 36, 42); stroke-width: 2px; stroke-dasharray: 0.5, 5; stroke-linecap: round; stroke-linejoin: round; marker-end: url('#association-end-_FFFFFF-hsl_225_10_15_-3dyi2hm05z2icckyf84naoded');"/></g><polyline points="1821,218 1822,155 " class="djs-hit djs-hit-stroke" style="fill: none; stroke-opacity: 0; stroke: white; stroke-width: 15px;"/><rect x="1815" y="149" rx="3" width="13" height="75" class="djs-outline" style="fill: none;"/></g></g><g class="djs-group"><g class="djs-element djs-connection" data-element-id="Flow_0cylr3n" style="display: block;"><g class="djs-visual"><path d="m  1870,258L1972,258 " style="fill: none; stroke-width: 2px; stroke: rgb(34, 36, 42); stroke-linejoin: round; marker-end: url('#sequenceflow-end-_FFFFFF-hsl_225_10_15_-3dyi2hm05z2icckyf84naoded');"/></g><polyline points="1870,258 1972,258 " class="djs-hit djs-hit-stroke" style="fill: none; stroke-opacity: 0; stroke: white; stroke-width: 15px;"/><rect x="1864" y="252" rx="3" width="114" height="12" class="djs-outline" style="fill: none;"/></g></g><g class="djs-group"><g class="djs-element djs-connection" data-element-id="DataInputAssociation_1sv7m2s" style="display: block;"><g class="djs-visual"><polyline points="1205,155 1205,218 " style="fill: none; stroke: rgb(34, 36, 42); stroke-width: 2px; stroke-dasharray: 0.5, 5; stroke-linecap: round; stroke-linejoin: round; marker-end: url('#association-end-_FFFFFF-hsl_225_10_15_-3dyi2hm05z2icckyf84naoded');"/></g><polyline points="1205,155 1205,218 " class="djs-hit djs-hit-stroke" style="fill: none; stroke-opacity: 0; stroke: white; stroke-width: 15px;"/><rect x="1199" y="149" rx="3" width="12" height="75" class="djs-outline" style="fill: none;"/></g></g><g class="djs-group"><g class="djs-element djs-connection" data-element-id="Flow_1uiz1u2" style="display: block;"><g class="djs-visual"><path d="m  790,258L850,258 " style="fill: none; stroke-width: 2px; stroke: rgb(34, 36, 42); stroke-linejoin: round; marker-end: url('#sequenceflow-end-_FFFFFF-hsl_225_10_15_-3dyi2hm05z2icckyf84naoded');"/></g><polyline points="790,258 850,258 " class="djs-hit djs-hit-stroke" style="fill: none; stroke-opacity: 0; stroke: white; stroke-width: 15px;"/><rect x="784" y="252" rx="3" width="72" height="12" class="djs-outline" style="fill: none;"/></g></g><g class="djs-group"><g class="djs-element djs-connection" data-element-id="Flow_0ayolqe" style="display: block;"><g class="djs-visual"><path d="m  1675,258L1770,258 " style="fill: none; stroke-width: 2px; stroke: rgb(34, 36, 42); stroke-linejoin: round; marker-end: url('#sequenceflow-end-_FFFFFF-hsl_225_10_15_-3dyi2hm05z2icckyf84naoded');"/></g><polyline points="1675,258 1770,258 " class="djs-hit djs-hit-stroke" style="fill: none; stroke-opacity: 0; stroke: white; stroke-width: 15px;"/><rect x="1669" y="252" rx="3" width="107" height="12" class="djs-outline" style="fill: none;"/></g></g><g class="djs-group"><g class="djs-element djs-connection" data-element-id="Flow_0avmugx" style="display: block;"><g class="djs-visual"><path d="m  880,258L940,258 " style="fill: none; stroke-width: 2px; stroke: rgb(34, 36, 42); stroke-linejoin: round; marker-end: url('#sequenceflow-end-_FFFFFF-hsl_225_10_15_-3dyi2hm05z2icckyf84naoded');"/></g><polyline points="880,258 940,258 " class="djs-hit djs-hit-stroke" style="fill: none; stroke-opacity: 0; stroke: white; stroke-width: 15px;"/><rect x="874" y="252" rx="3" width="72" height="12" class="djs-outline" style="fill: none;"/></g></g><g class="djs-group"><g class="djs-element djs-connection" data-element-id="Flow_0m3ueh6" style="display: block;"><g class="djs-visual"><path d="m  970,258L1030,258 " style="fill: none; stroke-width: 2px; stroke: rgb(34, 36, 42); stroke-linejoin: round; marker-end: url('#sequenceflow-end-_FFFFFF-hsl_225_10_15_-3dyi2hm05z2icckyf84naoded');"/></g><polyline points="970,258 1030,258 " class="djs-hit djs-hit-stroke" style="fill: none; stroke-opacity: 0; stroke: white; stroke-width: 15px;"/><rect x="964" y="252" rx="3" width="72" height="12" class="djs-outline" style="fill: none;"/></g></g><g class="djs-group"><g class="djs-element djs-connection" data-element-id="Flow_11v0m5l" style="display: block;"><g class="djs-visual"><path d="m  388,258L500,258 " style="fill: none; stroke-width: 2px; stroke: rgb(34, 36, 42); stroke-linejoin: round; marker-end: url('#sequenceflow-end-_FFFFFF-hsl_225_10_15_-3dyi2hm05z2icckyf84naoded');"/></g><polyline points="388,258 500,258 " class="djs-hit djs-hit-stroke" style="fill: none; stroke-opacity: 0; stroke: white; stroke-width: 15px;"/><rect x="382" y="252" rx="3" width="124" height="12" class="djs-outline" style="fill: none;"/></g></g><g class="djs-group"><g class="djs-element djs-connection" data-element-id="Flow_1aqpw7u" style="display: block;"><g class="djs-visual"><path d="m  600,258L655,258 " style="fill: none; stroke-width: 2px; stroke: rgb(34, 36, 42); stroke-linejoin: round; marker-end: url('#sequenceflow-end-_FFFFFF-hsl_225_10_15_-3dyi2hm05z2icckyf84naoded');"/></g><polyline points="600,258 655,258 " class="djs-hit djs-hit-stroke" style="fill: none; stroke-opacity: 0; stroke: white; stroke-width: 15px;"/><rect x="594" y="252" rx="3" width="67" height="12" class="djs-outline" style="fill: none;"/></g></g><g class="djs-group"><g class="djs-element djs-connection" data-element-id="Flow_0y99fh0" style="display: block;"><g class="djs-visual"><path d="m  705,258L760,258 " style="fill: none; stroke-width: 2px; stroke: rgb(34, 36, 42); stroke-linejoin: round; marker-end: url('#sequenceflow-end-_FFFFFF-hsl_225_10_15_-3dyi2hm05z2icckyf84naoded');"/></g><polyline points="705,258 760,258 " class="djs-hit djs-hit-stroke" style="fill: none; stroke-opacity: 0; stroke: white; stroke-width: 15px;"/><rect x="699" y="252" rx="3" width="67" height="12" class="djs-outline" style="fill: none;"/></g></g><g class="djs-group"><g class="djs-element djs-shape" data-element-id="Flow_0y99fh0_label" style="display: block;" transform="matrix(1 0 0 1 724 240)"><g class="djs-visual"><text lineHeight="1.2" class="djs-label" style="font-family: Arial, sans-serif; font-size: 11px; font-weight: normal; fill: rgb(34, 36, 42);"><tspan x="0" y="9.899999999999999">yes</tspan></text></g><rect class="djs-hit djs-hit-all" x="0" y="0" width="17" height="14" style="fill: none; stroke-opacity: 0; stroke: white; stroke-width: 15px;"/><rect x="-6" y="-6" rx="3" width="29" height="26" class="djs-outline" style="fill: none;"/></g></g><g class="djs-group"><g class="djs-element djs-connection" data-element-id="Flow_10fj56y" style="display: block;"><g class="djs-visual"><path d="m  680,283L680,352 " style="fill: none; stroke-width: 2px; stroke: rgb(34, 36, 42); stroke-linejoin: round; marker-end: url('#sequenceflow-end-_FFFFFF-hsl_225_10_15_-3dyi2hm05z2icckyf84naoded'); marker-start: url('#conditional-default-flow-marker-_FFFFFF-hsl_225_10_15_-3dyi2hm05z2icckyf84naoded');"/></g><polyline points="680,283 680,352 " class="djs-hit djs-hit-stroke" style="fill: none; stroke-opacity: 0; stroke: white; stroke-width: 15px;"/><rect x="674" y="277" rx="3" width="12" height="81" class="djs-outline" style="fill: none;"/></g></g><g class="djs-group"><g class="djs-element djs-shape" data-element-id="Flow_10fj56y_label" style="display: block;" transform="matrix(1 0 0 1 689 314)"><g class="djs-visual"><text lineHeight="1.2" class="djs-label" style="font-family: Arial, sans-serif; font-size: 11px; font-weight: normal; fill: rgb(34, 36, 42);"><tspan x="0" y="9.899999999999999">no</tspan></text></g><rect class="djs-hit djs-hit-all" x="0" y="0" width="13" height="14" style="fill: none; stroke-opacity: 0; stroke: white; stroke-width: 15px;"/><rect x="-6" y="-6" rx="3" width="25" height="26" class="djs-outline" style="fill: none;"/></g></g><g class="djs-group"><g class="djs-element djs-connection" data-element-id="Association_0s4z46y" style="display: block;"><g class="djs-visual"><polyline points="550,218 550,179 " style="fill: none; stroke: rgb(34, 36, 42); stroke-width: 2px; stroke-dasharray: 0.5, 5; stroke-linecap: round; stroke-linejoin: round;"/></g><polyline points="550,218 550,179 " class="djs-hit djs-hit-stroke" style="fill: none; stroke-opacity: 0; stroke: white; stroke-width: 15px;"/><rect x="544" y="173" rx="3" width="12" height="51" class="djs-outline" style="fill: none;"/></g></g></svg>